<?xml version="1.0" encoding="utf-8"?>
<!-- Generator: Adobe Illustrator 26.0.1, SVG Export Plug-In . SVG Version: 6.00 Build 0)  -->
<svg version="1.1"
	 id="svg2" xmlns:cc="http://creativecommons.org/ns#" xmlns:dc="http://purl.org/dc/elements/1.1/" xmlns:rdf="http://www.w3.org/1999/02/22-rdf-syntax-ns#" xmlns:svg="http://www.w3.org/2000/svg"
	 xmlns="http://www.w3.org/2000/svg" xmlns:xlink="http://www.w3.org/1999/xlink" x="0px" y="0px" viewBox="0 0 2666.7 2666.7"
	 style="enable-background:new 0 0 2666.7 2666.7;" xml:space="preserve">
<style type="text/css">
	.st0{fill:#8D99AE;}
	.st1{fill:#DCBCB0;}
	.st2{fill:#287133;}
	.st3{fill:#379A3C;}
	.st4{fill:#25602C;}
	.st5{fill:#51AE36;}
	.st6{fill:#67C533;}
	.st7{fill:#CC8435;}
	.st8{fill:#F3D585;}
	.st9{fill:#E8F4FC;}
	.st10{fill:#FAFBFB;}
	.st11{fill:#C55B1E;}
	.st12{fill:#A7491E;}
	.st13{fill:#3A9F8E;}
	.st14{fill:#42B89D;}
	.st15{fill:#EBA83E;}
	.st16{fill:#FFFFFF;}
	.st17{fill:#80B5CB;}
	.st18{fill:#AADBE7;}
	.st19{fill:#F7CD4C;}
	.st20{fill:#FAE095;}
	.st21{fill:#52AF8D;}
	.st22{fill:#FDF8EC;}
	.st23{fill:#DCD5C9;}
	.st24{fill:#E24B97;}
	.st25{fill:#F18AC5;}
	.st26{fill:#497994;}
	.st27{fill:#5A95AB;}
	.st28{fill:#ED3D7D;}
	.st29{fill:#66CA9F;}
	.st30{fill:#ED9BC9;}
	.st31{fill:#F578B4;}
	.st32{fill:#BC998E;}
	.st33{fill:#FEF3ED;}
	.st34{fill:#C4CDCC;}
	.st35{fill:#EF233C;}
	.st36{fill:#F9B19B;}
	.st37{fill:#100F0D;}
	.st38{fill:#483C3C;}
	.st39{fill:#646769;}
	.st40{fill:#636769;}
	.st41{fill:#3C2E2B;}
	.st42{fill:#324958;}
	.st43{fill:#797A7B;}
	.st44{fill:#292221;}
	.st45{fill:#83262D;}
	.st46{fill:#728BBC;}
	.st47{fill:#AF2E38;}
	.st48{fill:#5C78A4;}
	.st49{fill:#3B201B;}
	.st50{fill:#F4876A;}
	.st51{fill:#281513;}
	.st52{fill:#131110;}
	.st53{fill:#86231C;}
	.st54{fill:#D90429;}
	.st55{fill:#EF6477;}
	.st56{fill:#D84C2C;}
	.st57{fill:#C5BFBA;}
	.st58{fill:#999795;}
	.st59{fill:#283953;}
	.st60{fill:#8146A7;}
	.st61{fill:#F0AA39;}
	.st62{fill:#FAB5A3;}
	.st63{fill:#EA277B;}
	.st64{fill:#6C6CBD;}
	.st65{fill:#1B232E;}
	.st66{fill:#E69713;}
	.st67{fill:#8C5A1D;}
	.st68{fill:#D0811A;}
	.st69{fill:#EF4A89;}
	.st70{fill:#DB4082;}
	.st71{fill:#AA1D42;}
	.st72{fill:#2E221F;}
	.st73{fill:#F89D9A;}
	.st74{fill:#2F1818;}
	.st75{fill:#321D1A;}
	.st76{fill:#462822;}
	.st77{fill:#ABD9C7;}
	.st78{fill:#F48E72;}
	.st79{fill:#4874AB;}
	.st80{fill:#2A4262;}
	.st81{fill:#3A6992;}
	.st82{fill:#DF813A;}
	.st83{fill:#FEF1F5;}
	.st84{fill:#5AB4A5;}
	.st85{fill:#34577E;}
</style>
<g id="g10" transform="matrix(1.3333333,0,0,-1.3333333,0,2666.6667)">
	<g id="g12" transform="scale(0.1)">
		<g id="g18" transform="scale(1.22699)">
			<path id="path20" class="st0" d="M9118.5,3775.6c-1980.3-118.8-6487,40.6-6127.7,864.6c359.3,824-2749.5,3812.2-1185.7,5006.9
				c1563.8,1194.7,4207.5,2316.6,3650.2,3356c-557.2,1039.3,3160.5,2865.3,4074.2,200.2c913.8-2665.1,641.4-247,2829.8-600.4
				c2188.3-353.5,4027.7-2488.3,2286.1-3385.1c-1741.5-896.8-2610-2857.7-1343.2-4233C14569.2,3609.5,9118.5,3775.6,9118.5,3775.6"
				/>
		</g>
		<g id="g22" transform="scale(1.19848)">
			<path id="path24" class="st1" d="M16300,3836.2H387.8v58.4H16300V3836.2"/>
		</g>
		<path id="path26" class="st2" d="M2908.5,6432.8c0,0-42.6,1044.4,538,1404.7C3446.5,7837.5,3089.6,6747.5,2908.5,6432.8"/>
		<path id="path28" class="st3" d="M2996,6140.7c0,0-236,1071,610.2,1248C3606.1,7388.7,3262.7,6655.4,2996,6140.7"/>
		<path id="path30" class="st3" d="M3183.6,6158.1c0,0,3.2,434.1,525.8,463.6C3709.4,6621.7,3435.9,6410.8,3183.6,6158.1"/>
		<path id="path32" class="st4" d="M2828.6,5927.4c12.8,152.7,32.6,304.8,57.5,456.1c24.6,151.3,54.9,301.8,91.1,450.9
			c18.6,74.5,38.1,148.7,60.3,222.3c22.6,73.3,46.2,146.5,73.7,218.2c27.5,71.8,58,142.4,93,210.9c35.6,68,74.9,134.6,123.9,193.7
			c-44.4-62.5-81.1-129.8-112.7-199.2c-32.1-69.2-59.9-140.3-85.6-212.2c-50.3-144.1-91.8-291.2-128-439.7
			c-36.4-148.4-67.7-298.1-96.3-448.3c-14.1-75.2-27.7-150.5-40.4-225.9C2851.7,6078.8,2840.1,6003.1,2828.6,5927.4"/>
		<path id="path34" class="st2" d="M2936.1,5836c1.3,51.8,7.8,103.3,14.5,154.7c3.4,25.7,8,51.2,12,76.8l14.4,76.4
			c20.1,101.8,46.2,202.2,74.5,301.8c28.4,99.7,61.2,198,96,295.6c17.5,48.7,36.4,96.9,55,145.2c20.1,47.8,39.4,95.7,60.2,143.1
			l-96.5-294.7c-14.9-49.5-32-98.2-46.2-147.8l-22.7-74l-21.5-74.4c-28.7-99.1-55.7-198.7-79.6-299l-17.4-75.4
			c-5.3-25.2-11.2-50.4-16-75.7C2951.9,5938.1,2943,5887.2,2936.1,5836"/>
		<path id="path36" class="st5" d="M2829.4,6621.7c0,0-237.9,1215.8,433.2,1516.1c0,0-53.8-508.9-222.5-938.7
			C2943.9,6953.6,2829.4,6621.7,2829.4,6621.7"/>
		<path id="path38" class="st2" d="M3040.2,5762c15.2,80.2,37.4,159.1,64.5,236.3c26.9,77.3,59.6,152.7,98.2,225.3
			c19.8,35.9,40.7,71.4,64.1,105.4c23.8,33.6,49,66.3,77.5,96.3c28.4,30.1,60,57.2,94.5,79.8c34.8,22.1,72.5,40.3,112.4,49.2
			c-38.2-14.4-73.7-34.4-105.3-59.3c-31.9-24.5-60.8-52.6-87.1-82.9c-52.2-61.2-95.9-129.4-134-200.5c-19.5-35.4-37-71.9-54-108.6
			c-17.2-36.7-32.8-74.1-48.1-111.6C3093.1,5916,3064.9,5839.7,3040.2,5762"/>
		<path id="path40" class="st2" d="M2461.9,6427.3c0,0-50.6,1012-839.4,1340.7c0,0,308.3-448.8,346.3-632.1
			C2006.8,6952.5,2234.3,6534.7,2461.9,6427.3"/>
		<path id="path42" class="st4" d="M1918.3,7502.5c91.8-126.1,174.9-258.5,252-394.2c38.7-67.8,75.3-136.8,110.7-206.4
			c35.1-69.8,68.3-140.5,100.1-211.9c31.4-71.5,60.6-144,88-217.2c27-73.3,51.7-147.6,73.6-222.6c21.9-75,40.1-151.1,55.7-227.6
			c14.2-76.9,25.8-154.1,32.1-231.9c-11.9,77.1-26,153.6-44.2,229.2c-18.4,75.6-39.1,150.5-62.5,224.6
			c-47.2,148-103.2,293.2-165.9,435.3c-62.5,142.4-131.4,281.8-204.9,419c-36.8,68.5-74.6,136.5-113.8,203.8
			C2000.6,7370.2,1960,7436.6,1918.3,7502.5"/>
		<path id="path44" class="st3" d="M2683.8,6554.3c0,0,233.3,1233.8-101.7,1618.3C2582.1,8172.6,2421.2,7183.1,2683.8,6554.3"/>
		<path id="path46" class="st6" d="M2760,5790.7c3,79.3,7.9,158.4,12.1,237.6l16,237.3c11.3,158.2,25.6,316.2,39.9,474.1
			c16.3,157.8,32.7,315.6,53.7,472.8c10.8,78.6,22.2,157.2,35.5,235.4c6.9,39.1,14.4,78.1,22.8,116.9c8.8,38.7,17.4,77.7,31.9,114.7
			l-8-28.6l-6.3-29c-3.9-19.4-7.7-38.8-10.9-58.4c-6.5-39-12.1-78.2-17.1-117.5c-10.7-78.4-20-157.1-28.4-235.8l-25-236.3
			l-22.9-236.6c-16.3-157.7-30.3-315.5-45.7-473.3l-23-236.7L2760,5790.7"/>
		<path id="path48" class="st5" d="M2376.6,6116.3c0,0,60.1,576.5-407.7,739.3C1968.9,6855.6,2114.2,6307.2,2376.6,6116.3"/>
		<path id="path50" class="st3" d="M2603.4,6334.7c0,0,72.3,579-247.9,801.2c0,0-1.1-311,81.1-443.1
			C2518.8,6560.6,2603.4,6334.7,2603.4,6334.7"/>
		<path id="path52" class="st2" d="M2702.2,5762c-4.8,91.1-8,182.2-12.1,273.3l-9.9,273.5l-16.9,546.9l-13.7,546.9
			c-1.9,91.2-4.3,182.3-7,273.4c-2.7,91.2-3.6,182.4-12,273.2c14.1-90.3,17.5-181.7,24.4-272.6c5.2-91.1,9.7-182.2,14-273.3
			c4.6-91.1,7.3-182.3,10.6-273.5l9-273.5c3.9-182.3,8.8-364.7,11-547.1l2.9-273.6C2702.3,5944.4,2703.1,5853.2,2702.2,5762"/>
		<path id="path54" class="st2" d="M2702.2,5762c-21.2,106.7-42.1,213.4-62.4,320.2c-20.7,106.6-40.9,213.4-62.5,319.8
			c-10.4,53.3-21.5,106.4-32.9,159.5c-10.9,53.1-23.1,106-35.3,158.9c-12.5,52.7-25.3,105.4-40.4,157.5
			c-14.8,52.1-31.2,104-57.3,151.7c15.9-22.1,28-46.8,39.1-71.7c5.5-12.6,10.5-25.2,15.7-37.9l14.3-38.3
			c18-51.6,33.5-103.9,47.8-156.5c28.7-105.2,52.1-211.6,73.8-318.2c21.2-106.8,40.4-214,57.1-321.5
			C2676.2,5978.1,2690.6,5870.2,2702.2,5762"/>
		<path id="path56" class="st6" d="M2461.9,5745.1c-18.7,79.5-39.1,158.4-60,237c-21.3,78.5-43.6,156.6-68.9,233.7
			c-25,77.2-52.8,153.5-85.2,227.8c-16.1,37.1-33.9,73.6-53.3,109.1c-19.1,35.8-41,70-65.5,102.7c57-58.9,100.5-130.1,136.7-203.5
			c18.3-36.8,34.5-74.5,49.8-112.5c14.9-38.2,28.7-76.8,41.6-115.7c12.4-39.1,24.2-78.3,34.9-117.8c10.4-39.5,20.5-79.2,29.1-119.1
			C2438.8,5906.9,2452.9,5826.3,2461.9,5745.1"/>
		<path id="path58" class="st3" d="M2214.9,6116.3c0,0,0,346.9-386.9,400C1828,6516.3,2037.5,6307.2,2214.9,6116.3"/>
		<path id="path60" class="st5" d="M2481.1,6334.7c0,0,101,694.9-352.1,1104.6C2129,7439.3,2026.1,6878.7,2481.1,6334.7"/>
		<path id="path62" class="st2" d="M2355.5,5762c-22.8,61.5-47.2,122.1-73,182c-6.4,15-13,29.9-19.8,44.7
			c-6.8,14.8-13.2,29.8-20.6,44.3l-21.2,43.9l-22.5,43.3c-7.2,14.5-15.6,28.4-23.4,42.7l-11.9,21.2l-12.8,20.7
			c-8.6,13.7-16.5,28-25.6,41.3c-9.3,13.3-18.3,26.8-27.4,40.3c-38.1,52.4-80,102-128.6,146.4c55.1-36.1,102.6-83.3,144.3-134.6
			c41.5-51.6,76.1-108.2,107.6-166.2c30.9-58.4,57.2-118.9,79.9-180.7C2323.3,5889.5,2342.8,5826.5,2355.5,5762"/>
		<path id="path64" class="st6" d="M2582.1,5745.1c-23.6,135.2-48.3,270.2-73.5,404.9c-25.6,134.7-52,269.2-81.3,403
			c-29.1,133.8-61,267-98.5,398.6c-19.2,65.7-39.7,130.9-63.9,194.8c-24,63.9-51.7,126.9-90.8,183.4c21.4-26.8,41.1-55.3,57-85.8
			l12.4-22.7l11.3-23.3c7.8-15.4,14.8-31.1,21.6-46.9c27.2-63.3,50.4-128.2,71.3-193.7c21-65.6,39.1-131.9,56.7-198.4
			c17.1-66.6,32.6-133.6,47.6-200.6c14.4-67.2,28.1-134.5,40.8-202c12.4-67.6,24.5-135.2,35.2-203
			C2549.9,6017.8,2568.2,5881.7,2582.1,5745.1"/>
		<path id="path66" class="st7" d="M3685.3,5925.4l-15.6-232l-73.5-1090.8H1917l-89,1322.8L3685.3,5925.4"/>
		<path id="path68" class="st8" d="M3713.9,5790.7H1806.1c-59.7,0-108.1,48.4-108.1,108.1v57.1c0,59.7,48.4,108.1,108.1,108.1
			h1907.8c59.7,0,108.1-48.4,108.1-108.1v-57.1C3822,5839.1,3773.6,5790.7,3713.9,5790.7"/>
		<g id="g70" transform="scale(1.13044)">
			<path id="path72" class="st0" d="M16300,2684.7c0-336.9-3357.3-609.9-7498.7-609.9c-4141.4,0-7498.7,273.1-7498.7,609.9
				c0,336.9,3357.3,609.9,7498.7,609.9C12942.7,3294.6,16300,3021.6,16300,2684.7"/>
		</g>
		<g id="g74" transform="scale(1.05755)">
			<path id="path76" class="st9" d="M7620.1,16300v-6202.4H2574.2V16300H7620.1"/>
		</g>
		<g id="g78" transform="scale(1.05755)">
			<path id="path80" class="st10" d="M6860.7,16300l-4286.5-4114.3v536.9l3727,3577.4H6860.7"/>
		</g>
		<path id="path82" class="st10" d="M8058.6,15049.2v-567.9l-3961.8-3802.6h-591.7L8058.6,15049.2"/>
		<g id="g84" transform="scale(1.04724)">
			<path id="path86" class="st10" d="M7695.1,16300v-1207.4l-5095.6-4890.7V11409L7695.1,16300"/>
		</g>
		<g id="g88" transform="scale(1.06368)">
			<path id="path90" class="st11" d="M2653.3,10074.7h4870.8V16112H2653.3V10074.7z M7712.2,9886.6H2465.3V16300h5246.9V9886.6"/>
		</g>
		<path id="path92" class="st11" d="M8885.7,10334.1H2042.3v344.6h6843.4V10334.1"/>
		<path id="path94" class="st12" d="M8427.6,10581.6H2500.4v344.6h5927.1V10581.6"/>
		<g id="g96" transform="scale(1.05755)">
			<path id="path98" class="st11" d="M5203.4,10005.8h-189.1V16300h189.1V10005.8"/>
		</g>
		<path id="path100" class="st13" d="M3679.6,11544.1c0,0-58.2,243.6-410.9,295.5C3268.7,11839.6,3235.1,11577.9,3679.6,11544.1"/>
		<path id="path102" class="st14" d="M3722.8,11668.2c0,0,48.7,189.5-334.1,287C3388.6,11955.2,3427.8,11634.7,3722.8,11668.2"/>
		<path id="path104" class="st14" d="M3834.5,11629.4c0,0-80,317.6,205.7,456.7C4040.2,12086.1,4246.1,11810.2,3834.5,11629.4"/>
		<path id="path106" class="st13" d="M3960,11668.2c0,0-48.7,189.5,334.1,287C4294.1,11955.2,4254.9,11634.7,3960,11668.2"/>
		<path id="path108" class="st14" d="M3998.1,11544.1c0,0,58.2,243.6,410.9,295.5C4408.9,11839.6,4442.6,11577.9,3998.1,11544.1"/>
		<path id="path110" class="st13" d="M3814.8,11629.4c0,0,122.4,349.5-258.1,420.3C3556.7,12049.7,3564.4,11742.2,3814.8,11629.4"/>
		<path id="path112" class="st15" d="M4333,11587.4l3,45.6h-994.7l10.4-155.1l0,0l0.2-3.1l4.8-70.6l4.4-65.3l8.9-131.3l2.9-43.6h0
			l11.7-173.8l0,0l2.3-34l2.1-31.6h899.2l4.4,65.6l0,0l10.5,155.3h0l2.9,42.3l0,0.1l6.6,98.3v-0.1l2.9,42.4h0l6.6,98.7L4333,11587.4
			"/>
		<path id="path114" class="st16" d="M4337.6,11579h-997.8c-28.7,0-52,23.3-52,52v8.8c0,28.8,23.3,52.1,52,52.1h997.8
			c28.7,0,52-23.3,52-52.1v-8.8C4389.6,11602.3,4366.3,11579,4337.6,11579"/>
		<path id="path116" class="st11" d="M14068.7,4584h-200v9253.7h-3287.1V4584h-200v9453.7h3687.1L14068.7,4584"/>
		<path id="path118" class="st11" d="M13968.7,11463.9H10504v200h3464.7V11463.9"/>
		<path id="path120" class="st11" d="M13968.7,8942.3H10504v200h3464.7V8942.3"/>
		<path id="path122" class="st11" d="M13968.7,6487.8H10504v200h3464.7V6487.8"/>
		<path id="path124" class="st17" d="M13717,10888.5V9157.9h-486.3v1730.6H13717"/>
		<path id="path126" class="st18" d="M13717,10802.2v-86.3h-486.3v86.3H13717"/>
		<path id="path128" class="st18" d="M13717,10645.3v-86.3h-486.3v86.3H13717"/>
		<path id="path130" class="st18" d="M13717,9492.2v-86.3h-486.3v86.3H13717"/>
		<path id="path132" class="st18" d="M13717,9335.3V9249h-486.3v86.3H13717"/>
		<path id="path134" class="st18" d="M13524.8,9547.1h-101.9v957h101.9V9547.1"/>
		<path id="path136" class="st19" d="M12498.5,10842.7l881.3-1489.4l-418.6-247.6l-881.3,1489.3L12498.5,10842.7"/>
		<path id="path138" class="st20" d="M12542.4,10768.4l44-74.2l-418.6-247.7l-43.9,74.3L12542.4,10768.4"/>
		<path id="path140" class="st20" d="M12622.3,10633.4l44-74.2l-418.6-247.7l-43.9,74.3L12622.3,10633.4"/>
		<path id="path142" class="st20" d="M13209.5,9641l44-74.2l-418.6-247.7l-43.9,74.3L13209.5,9641"/>
		<path id="path144" class="st20" d="M13289.4,9506l44-74.2l-418.6-247.7l-43.9,74.3L13289.4,9506"/>
		<path id="path146" class="st20" d="M13016.2,9590.4l-87.8-51.9l-487.3,823.6l87.7,51.9L13016.2,9590.4"/>
		<path id="path148" class="st21" d="M12421.3,9142.4h-1393.8c-95.7,0-173.3,77.6-173.3,173.3v108.4c0,95.7,77.6,173.3,173.3,173.3
			h1393.8C12340,9442,12336.3,9291,12421.3,9142.4"/>
		<path id="path150" class="st22" d="M12448.5,9230.5h-1328.8c-77,0-139.4,62.4-139.4,139.4l0,0c0,76.9,62.4,139.3,139.4,139.3
			h1328.8C12382.3,9416.3,12382.3,9323.4,12448.5,9230.5"/>
		<path id="path152" class="st23" d="M12341.3,9424h-1291.7v23.5h1291.7V9424"/>
		<path id="path154" class="st23" d="M12341.3,9358.1h-1291.7v23.5h1291.7V9358.1"/>
		<path id="path156" class="st23" d="M12341.3,9298.5h-1291.7v23.5h1291.7V9298.5"/>
		<path id="path158" class="st21" d="M12421.3,9607.4h-1393.8c-95.7,0-173.3,77.6-173.3,173.3V9889c0,95.7,77.6,173.3,173.3,173.3
			h1393.8C12340,9906.9,12336.3,9755.9,12421.3,9607.4"/>
		<path id="path160" class="st22" d="M12448.5,9695.5h-1328.8c-77,0-139.4,62.4-139.4,139.3l0,0c0,77,62.4,139.4,139.4,139.4h1328.8
			C12382.3,9881.3,12382.3,9788.4,12448.5,9695.5"/>
		<path id="path162" class="st23" d="M12341.3,9888.9h-1291.7v23.6h1291.7V9888.9"/>
		<path id="path164" class="st23" d="M12341.3,9823.1h-1291.7v23.5h1291.7V9823.1"/>
		<path id="path166" class="st23" d="M12341.3,9763.4h-1291.7v23.6h1291.7V9763.4"/>
		<path id="path168" class="st19" d="M12421.3,6675.9h-1393.8c-95.7,0-173.3,77.6-173.3,173.3v108.4c0,95.7,77.6,173.3,173.3,173.3
			h1393.8C12340,6975.5,12336.3,6824.5,12421.3,6675.9"/>
		<path id="path170" class="st22" d="M12448.5,6764.1h-1328.8c-77,0-139.4,62.4-139.4,139.3l0,0c0,77,62.4,139.4,139.4,139.4h1328.8
			C12382.3,6949.9,12382.3,6857,12448.5,6764.1"/>
		<path id="path172" class="st23" d="M12341.3,6957.5h-1291.7v23.6h1291.7V6957.5"/>
		<path id="path174" class="st23" d="M12341.3,6891.7h-1291.7v23.5h1291.7V6891.7"/>
		<path id="path176" class="st23" d="M12341.3,6832h-1291.7v23.5h1291.7V6832"/>
		<path id="path178" class="st24" d="M12421.3,7140.9h-1393.8c-95.7,0-173.3,77.6-173.3,173.3v108.4c0,95.7,77.6,173.3,173.3,173.3
			h1393.8C12340,7440.5,12336.3,7289.5,12421.3,7140.9"/>
		<path id="path180" class="st22" d="M12448.5,7229.1h-1328.8c-77,0-139.4,62.3-139.4,139.3l0,0c0,76.9,62.4,139.3,139.4,139.3
			h1328.8C12382.3,7414.8,12382.3,7321.9,12448.5,7229.1"/>
		<path id="path182" class="st23" d="M12341.3,7422.5h-1291.7v23.5h1291.7V7422.5"/>
		<path id="path184" class="st23" d="M12341.3,7356.6h-1291.7v23.5h1291.7V7356.6"/>
		<path id="path186" class="st23" d="M12341.3,7297h-1291.7v23.5h1291.7V7297"/>
		<path id="path188" class="st24" d="M11605.9,13312.2l-614.3-1493.9l419.8-172.7l614.4,1494L11605.9,13312.2"/>
		<path id="path190" class="st25" d="M11339.7,12068L11339.7,12068c24.3-10,52.1,1.6,62.1,25.9l303.5,738.1
			c10,24.3-1.6,52.1-25.9,62.1l0,0c-24.3,10-52.1-1.6-62.1-25.9l-303.6-738.1C11303.7,12105.8,11315.3,12078,11339.7,12068"/>
		<path id="path192" class="st25" d="M11652.1,13018.5c0-45.9,37.1-83,82.9-83c45.9,0,83,37.1,83,83c0,45.8-37.1,82.9-83,82.9
			C11689.2,13101.4,11652.1,13064.3,11652.1,13018.5"/>
		<path id="path194" class="st25" d="M11188.4,11920.2c0-45.8,37.1-83,83-83c45.8,0,82.9,37.2,82.9,83c0,45.8-37.1,83-82.9,83
			C11225.5,12003.2,11188.4,11966,11188.4,11920.2"/>
		<path id="path196" class="st26" d="M13125.7,13286.6v-1615.3h454v1615.3H13125.7"/>
		<path id="path198" class="st27" d="M13125.7,13206.1v-80.6h454v80.6H13125.7"/>
		<path id="path200" class="st27" d="M13125.7,13059.6v-80.5h454v80.5H13125.7"/>
		<path id="path202" class="st27" d="M13125.7,11983.3v-80.5h454v80.5H13125.7"/>
		<path id="path204" class="st27" d="M13125.7,11836.9v-80.6h454v80.6H13125.7"/>
		<path id="path206" class="st27" d="M13305.1,12034.6h95.2v893.2h-95.2V12034.6"/>
		<path id="path208" class="st28" d="M12027.4,13286.6v-1615.3h454v1615.3H12027.4"/>
		<path id="path210" class="st25" d="M12027.4,13206.1v-80.6h454v80.6H12027.4"/>
		<path id="path212" class="st25" d="M12027.4,13059.6v-80.5h454v80.5H12027.4"/>
		<path id="path214" class="st25" d="M12027.4,11983.3v-80.5h454v80.5H12027.4"/>
		<path id="path216" class="st25" d="M12027.4,11836.9v-80.6h454v80.6H12027.4"/>
		<path id="path218" class="st25" d="M12161.7,12478.9c0-233.2,41.5-422.3,92.7-422.3s92.7,189.1,92.7,422.3s-41.5,422.2-92.7,422.2
			S12161.7,12712.1,12161.7,12478.9"/>
		<path id="path220" class="st21" d="M12694.6,13307.1l-158.8-1604.9l391.3-51.5l158.8,1605L12694.6,13307.1"/>
		<path id="path222" class="st29" d="M12686.7,13227.1l-7.9-80l391.3-51.5l7.9,80.1L12686.7,13227.1"/>
		<path id="path224" class="st29" d="M12672.3,13081.6l-7.9-80l391.3-51.4l7.9,80L12672.3,13081.6"/>
		<path id="path226" class="st29" d="M12566.5,12012.2l-7.9-80l391.3-51.4l7.9,80L12566.5,12012.2"/>
		<path id="path228" class="st29" d="M12552.1,11866.7l-7.9-80l391.3-51.4l7.9,80L12552.1,11866.7"/>
		<path id="path230" class="st29" d="M12726.2,12042.8l82-10.8l87.8,887.6l-82,10.7L12726.2,12042.8"/>
		<path id="path232" class="st24" d="M13216.6,8312.4V6697h454v1615.4H13216.6"/>
		<path id="path234" class="st30" d="M13216.6,8231.8v-80.5h454v80.5H13216.6"/>
		<path id="path236" class="st30" d="M13216.6,8085.4v-80.5h454v80.5H13216.6"/>
		<path id="path238" class="st30" d="M13216.6,7009.1v-80.6h454v80.6H13216.6"/>
		<path id="path240" class="st30" d="M13216.6,6862.7v-80.6h454v80.6H13216.6"/>
		<path id="path242" class="st30" d="M13396,7060.3h95.2v893.3h-95.2V7060.3"/>
		<path id="path244" class="st28" d="M12785.5,8332.9L12626.8,6728l391.3-51.5l158.7,1605L12785.5,8332.9"/>
		<path id="path246" class="st31" d="M12777.6,8252.9l-7.9-80l391.3-51.5l7.9,80L12777.6,8252.9"/>
		<path id="path248" class="st31" d="M12763.2,8107.4l-7.9-80l391.3-51.5l7.9,80L12763.2,8107.4"/>
		<path id="path250" class="st31" d="M12657.4,7038l-7.9-80l391.3-51.5l7.9,80.1L12657.4,7038"/>
		<path id="path252" class="st31" d="M12643,6892.5l-7.9-80l391.3-51.5l7.9,80.1L12643,6892.5"/>
		<path id="path254" class="st31" d="M12817.1,7068.6l82-10.8l87.8,887.5l-82,10.8L12817.1,7068.6"/>
		<g id="g256" transform="scale(1.03835)">
			<path id="path258" class="st32" d="M12951.8,15246.6c0-581.8-471.6-1053.5-1053.4-1053.5c-581.8,0-1053.4,471.7-1053.4,1053.5
				s471.6,1053.4,1053.4,1053.4C12480.2,16300,12951.8,15828.4,12951.8,15246.6"/>
		</g>
		<g id="g260" transform="scale(1.02977)">
			<path id="path262" class="st33" d="M12923.9,15373.6c0-511.7-414.7-926.4-926.4-926.4c-511.6,0-926.4,414.7-926.4,926.4
				c0,511.6,414.8,926.4,926.4,926.4C12509.2,16300,12923.9,15885.2,12923.9,15373.6"/>
		</g>
		<g id="g264" transform="scale(1.02842)">
			<path id="path266" class="st32" d="M12919.5,15393.8c0-500.5-405.7-906.3-906.2-906.3s-906.3,405.8-906.3,906.3
				s405.8,906.2,906.3,906.2S12919.5,15894.3,12919.5,15393.8"/>
		</g>
		<g id="g268" transform="scale(1.02894)">
			<path id="path270" class="st33" d="M12007.2,16111.6c-6,0-10.9,4.9-10.9,10.9v166.5c0,6.1,4.9,11,10.9,11c6.1,0,11-4.9,11-11
				v-166.5C12018.2,16116.5,12013.3,16111.6,12007.2,16111.6"/>
		</g>
		<g id="g272" transform="scale(1.0214)">
			<path id="path274" class="st33" d="M11724.9,16131.1c-3.8,0-7.5,2-9.6,5.5l-83.8,145.3c-3.1,5.3-1.3,12,4,15.1
				c5.3,3,12.1,1.2,15.1-4.1l83.8-145.3c3.1-5.2,1.3-12-4-15C11728.6,16131.6,11726.8,16131.1,11724.9,16131.1"/>
		</g>
		<g id="g276" transform="scale(1.00053)">
			<path id="path278" class="st33" d="M11692.1,16190.2c-1.8,0-3.8,0.5-5.5,1.6l-148.4,85.6c-5.4,3.1-7.3,10-4.1,15.4
				c3.1,5.3,10,7.2,15.4,4.1l148.2-85.6c5.4-3.1,7.3-10,4.2-15.4C11699.8,16192.3,11696.1,16190.2,11692.1,16190.2"/>
		</g>
		<path id="path280" class="st33" d="M11596.9,15820h-171.4c-6.2,0-11.2,5-11.2,11.3c0,6.2,5,11.2,11.2,11.2h171.4
			c6.2,0,11.2-5,11.2-11.2C11608.1,15825,11603.1,15820,11596.9,15820"/>
		<path id="path282" class="st33" d="M11550,15355.4c-3.9,0-7.7,2-9.7,5.7c-3.2,5.3-1.3,12.2,4.1,15.3l148.4,85.7
			c5.4,3.1,12.3,1.3,15.4-4.1c3.1-5.4,1.2-12.3-4.2-15.4l-148.3-85.7C11553.9,15355.9,11551.9,15355.4,11550,15355.4"/>
		<path id="path284" class="st33" d="M11890.1,15015.3c-1.9,0-3.8,0.5-5.6,1.5c-5.4,3.1-7.3,10-4.1,15.4l85.6,148.4
			c3.1,5.4,10,7.3,15.4,4.1c5.4-3.1,7.3-10,4.1-15.4l-85.6-148.3C11897.8,15017.3,11894,15015.3,11890.1,15015.3"/>
		<path id="path286" class="st33" d="M12354.7,14890.8c-6.2,0-11.3,5.1-11.3,11.3v171.3c0,6.3,5.1,11.3,11.3,11.3s11.3-5,11.3-11.3
			v-171.3C12366,14895.9,12360.9,14890.8,12354.7,14890.8"/>
		<path id="path288" class="st33" d="M12819.3,15015.3c-3.9,0-7.7,2-9.8,5.7l-85.7,148.3c-3.1,5.4-1.2,12.3,4.2,15.4
			c5.3,3.1,12.2,1.3,15.4-4.1l85.6-148.4c3.1-5.4,1.3-12.3-4.1-15.4C12823.1,15015.8,12821.2,15015.3,12819.3,15015.3"/>
		<path id="path290" class="st33" d="M13159.3,15355.4c-1.9,0-3.8,0.5-5.6,1.5l-148.4,85.7c-5.4,3.1-7.2,10-4.1,15.4
			c3.1,5.4,10,7.2,15.4,4.1l148.4-85.7c5.4-3.1,7.2-10,4.1-15.3C13167,15357.4,13163.2,15355.4,13159.3,15355.4"/>
		<path id="path292" class="st33" d="M13283.8,15820h-171.3c-6.2,0-11.3,5-11.3,11.3c0,6.2,5.1,11.2,11.3,11.2h171.3
			c6.3,0,11.3-5,11.3-11.2C13295.1,15825,13290.1,15820,13283.8,15820"/>
		<g id="g294" transform="scale(1.00053)">
			<path id="path296" class="st33" d="M13004.1,16190.2c-3.9,0-7.7,2.1-9.8,5.7c-3.1,5.4-1.3,12.3,4.1,15.4l148.3,85.6
				c5.4,3.1,12.3,1.3,15.4-4.1c3.1-5.4,1.3-12.3-4.1-15.4l-148.4-85.6C13007.8,16190.7,13006,16190.2,13004.1,16190.2"/>
		</g>
		<g id="g298" transform="scale(1.0214)">
			<path id="path300" class="st33" d="M12466.8,16131.1c-1.8,0-3.8,0.5-5.5,1.5c-5.2,3-7.1,9.8-4.1,15l83.9,145.3
				c3.1,5.3,9.8,7.1,15.1,4.1c5.3-3.1,7.1-9.8,4-15.1l-83.8-145.3C12474.4,16133.1,12470.6,16131.1,12466.8,16131.1"/>
		</g>
		<g id="g302" transform="scale(1.01081)">
			<path id="path304" class="st33" d="M12233.7,15661.9h-22.4v638.1h22.4V15661.9"/>
		</g>
		<g id="g306" transform="scale(1.0116)">
			<path id="path308" class="st33" d="M12282.1,16240.2c-1.4,0-2.7,0.4-4,1.2l-64.4,41.7l-57.2-41.5c-3.3-2.4-7.9-1.7-10.4,1.7
				c-2.4,3.3-1.7,7.9,1.7,10.3l61.4,44.5c2.4,1.8,5.8,1.9,8.4,0.2l68.6-44.4c3.4-2.3,4.4-6.9,2.2-10.3
				C12287,16241.4,12284.6,16240.2,12282.1,16240.2"/>
		</g>
		<path id="path310" class="st33" d="M12354.9,15842l0.7-22.5l-481.9-13.9l-0.6,22.5L12354.9,15842"/>
		<path id="path312" class="st33" d="M11919.1,15888.1c0-1.4-0.3-2.8-1.1-4.1l-40.3-66.2l43.6-56.7c2.5-3.3,1.9-8-1.4-10.6
			c-3.3-2.5-8-1.9-10.5,1.4l-46.8,60.8c-1.9,2.4-2.1,5.8-0.4,8.5l42.9,70.6c2.2,3.6,6.8,4.7,10.4,2.5
			C11917.7,15893,11919,15890.6,11919.1,15888.1"/>
		<path id="path314" class="st34" d="M4142.6,10178h2409.2l454.6-2081.8H4655.5L4142.6,10178"/>
		<path id="path316" class="st35" d="M7897.4,11219.5l-211.2-1078L6260.8,10560c-166.3,48.9-340.7-46.4-389.5-212.6
			c-48.8-166.3,46.4-340.7,212.7-389.6l1688.1-495.6c37.6-21,80.1-34.6,125.8-38.5c172.7-14.9,324.7,113.1,339.5,285.8l141,1391.3
			L7897.4,11219.5"/>
		<path id="path318" class="st36" d="M8563.9,11829.2c-30.3,29.8-194-181.4-194-181.4s168.7,400.2,94.5,408.8s-207-372.6-207-372.6
			s131.3,498.5,52.1,511.1c-96.7,15.3-177.3-512.5-177.3-512.5s36.7,425.7-39.4,422.4c-73-3.1-108.2-607.5-108.2-607.5
			s-99.8,223.9-165,179c-30.3-20.9,41.1-315.2,77.5-457l368.2-90.8C8369.3,11329.5,8602,11791.8,8563.9,11829.2"/>
		<path id="path320" class="st37" d="M7305.7,4875.2H7284v1590.9h21.7V4875.2"/>
		<path id="path322" class="st37" d="M7304.9,4871.1l-20,8.3l608.8,1469.7l20-8.3L7304.9,4871.1"/>
		<path id="path324" class="st37" d="M7302.5,4867.5l-15.3,15.4l1124.9,1124.9l15.3-15.4L7302.5,4867.5"/>
		<path id="path326" class="st37" d="M7299,4865.2l-8.3,20L8760.5,5494l8.3-20L7299,4865.2"/>
		<path id="path328" class="st37" d="M8885.7,4864.4H7294.9v21.7h1590.8V4864.4"/>
		<path id="path330" class="st37" d="M8760.5,4256.4l-1469.8,608.8l8.3,20l1469.8-608.8L8760.5,4256.4"/>
		<path id="path332" class="st37" d="M8412.1,3742.6L7287.2,4867.5l15.3,15.4L8427.4,3758L8412.1,3742.6"/>
		<path id="path334" class="st37" d="M7893.6,3401.3l-608.8,1469.8l20,8.3l608.8-1469.8L7893.6,3401.3"/>
		<path id="path336" class="st37" d="M7305.7,3284.4H7284v1590.8h21.7V3284.4"/>
		<path id="path338" class="st37" d="M6696.1,3401.3l-20,8.3l608.8,1469.8l20-8.3L6696.1,3401.3"/>
		<path id="path340" class="st37" d="M6177.6,3742.6l-15.3,15.4l1124.9,1124.9l15.3-15.4L6177.6,3742.6"/>
		<path id="path342" class="st37" d="M5829.3,4256.4l-8.3,20l1469.8,608.8l8.3-20L5829.3,4256.4"/>
		<path id="path344" class="st37" d="M7294.9,4864.4H5704v21.7h1590.9L7294.9,4864.4"/>
		<path id="path346" class="st37" d="M7290.7,4865.2L5821,5474l8.3,20L7299,4885.2L7290.7,4865.2"/>
		<path id="path348" class="st37" d="M7287.2,4867.5L6162.3,5992.4l15.3,15.4l1124.9-1124.9L7287.2,4867.5"/>
		<path id="path350" class="st37" d="M7284.9,4871.1l-608.8,1469.7l20,8.3l608.8-1469.7L7284.9,4871.1"/>
		<path id="path352" class="st38" d="M9036.3,5383.6c-82.5,283.5-235.3,550.7-458.8,774.2c-65.2,65.1-134,124.2-206,177.4
			l-107.8-179l-58.7-97.4c50.5-39,99.2-81.6,145.5-128c143.1-143.1,251-308.1,323.9-484.2c75.5-182.5,113.4-376.9,113.4-571.4
			c0-194.4-37.8-388.8-113.4-571.4c-72.8-176-180.8-341-323.9-484.1c-143.1-143.2-308.1-251.1-484.2-323.9
			c-182.5-75.5-376.9-113.4-571.4-113.4c-194.5,0-388.9,37.9-571.4,113.4c-176.1,72.8-341.1,180.7-484.2,323.9
			c-143.1,143.1-251,308.1-323.9,484.1c-75.5,182.6-113.4,377-113.4,571.4c0,194.5,37.9,388.9,113.4,571.4
			c72.9,176.1,180.8,341.1,323.9,484.2c143.1,143.2,308.1,251.1,484.2,323.9c182.5,75.5,376.9,113.4,571.4,113.4
			c194.5,0,388.9-37.9,571.4-113.4c37.4-15.5,74.3-32.5,110.6-51.2l90.1,149.4l76,126.1c-109.2,57.8-223.1,103.7-339.7,137.6
			c-615,178.9-1306.1,26.1-1790.9-458.8c-708.3-708.3-708.3-1856.8,0-2565.1s1856.8-708.3,2565.1,0
			C9062.3,4077.6,9215.2,4768.7,9036.3,5383.6"/>
		<path id="path354" class="st39" d="M8692,7981.8H6994.9v228.7H8692c23.4,0,42.4-19,42.4-42.4v-143.9
			C8734.5,8000.8,8715.5,7981.8,8692,7981.8"/>
		<path id="path356" class="st40" d="M7028.3,4985.7c-14.1-34-21.9-71.3-21.9-110.5c0-39.1,7.8-76.4,21.9-110.4
			c14.6-35.3,36-67,62.6-93.6c26.6-26.6,58.3-47.9,93.6-62.6c34-14.1,71.3-21.9,110.4-21.9c39.1,0,76.4,7.8,110.4,21.9
			c35.3,14.7,67,36,93.6,62.6c26.6,26.6,48,58.3,62.6,93.6c14.1,34,21.9,71.3,21.9,110.4c0,39.2-7.8,76.5-21.9,110.5
			c-14.6,35.2-36,67-62.6,93.6c-26.6,26.6-58.3,47.9-93.6,62.6l-1.6-4l-1.2,5.1c-33.2,13.4-69.5,20.8-107.5,20.8
			c-39.1,0-76.4-7.8-110.4-21.9c-18.8-7.9-36.6-17.6-53.2-29c-14.5-10-28-21.2-40.4-33.6C7064.3,5052.7,7042.9,5020.9,7028.3,4985.7
			"/>
		<path id="path358" class="st40" d="M6801.4,6204.1l42-169.4l196.2-792l97.1-391.9c16.6,11.5,34.4,21.2,53.2,29
			c34,14.2,71.3,22,110.4,22c38,0,74.3-7.4,107.5-20.8l-107.5,433.4l-193.4,779.2l-27.4,110.5l-50.3,202.7l-8.8,35.6l-289.9,1168.2
			h-277.6l289.4-1168.2l23.6-95.4L6801.4,6204.1"/>
		<path id="path360" class="st34" d="M7132.4,4942.5c-8.6-20.7-13.4-43.4-13.4-67.3c0-23.8,4.8-46.5,13.4-67.3
			c8.9-21.4,22-40.8,38.1-57c16.2-16.2,35.5-29.2,57-38.1c20.7-8.6,43.5-13.4,67.3-13.4c23.8,0,46.6,4.8,67.3,13.4
			c21.5,8.9,40.8,21.9,57,38.1s29.2,35.6,38.1,57c8.6,20.8,13.4,43.5,13.4,67.3c0,23.9-4.8,46.6-13.4,67.3
			c-8.9,21.5-21.9,40.9-38.1,57.1s-35.5,29.2-57,38.1l-1-2.4l-0.8,3.1c-20.3,8.2-42.4,12.7-65.5,12.7c-23.9,0-46.6-4.8-67.3-13.4
			c-11.5-4.7-22.3-10.7-32.4-17.6c-8.8-6.1-17.1-13-24.6-20.5C7154.4,4983.4,7141.3,4964,7132.4,4942.5"/>
		<path id="path362" class="st34" d="M9089.5,6704.4l-510,1352.5H7138.3l503.4-1352.5H9089.5"/>
		<path id="path364" class="st36" d="M5365.7,12574.7c4.9,2.7,9.8,5.3,14.8,7.8C5380.4,12582.5,5375.1,12579.9,5365.7,12574.7"/>
		<path id="path366" class="st36" d="M10336.4,4592.6l-5.8-1.5c3.8-14.9,5.8-30.6,5.8-47.2V4592.6"/>
		<path id="path368" class="st41" d="M7571,3928.7l70.8-280.2l433.5,106.4l-68.4,269.8L7571,3928.7"/>
		<path id="path370" class="st42" d="M3329.8,10278.3v-200.6h317.7l25.2,200.6H3329.8"/>
		<path id="path372" class="st36" d="M5394.9,5141.9c-1,0.4-1.9,0.7-2.9,1.1l1.3-5.1L5394.9,5141.9"/>
		<path id="path374" class="st34" d="M7138.3,7872.7H4714.7l289.9-1168.3h2526.4L7138.3,7872.7"/>
		<path id="path376" class="st43" d="M4606.1,8310.1l-55.5,223.7l-408,1644.2l-32,128.7h-434.4l-3.6-28.4l-25.2-200.6l-4.5-36.2
			h256.8L4378.1,8111h277.5L4606.1,8310.1"/>
		<path id="path378" class="st44" d="M5013.4,6668.9l50.3-202.8l27.4-110.5c63.3,8.2,127.8,12.5,193.4,12.5
			c202.4,0,395.4-40.4,571.4-113.4c182.5-75.6,346.7-186.4,484.2-323.9c137.5-137.5,248.2-301.7,323.9-484.2
			c73-176,113.4-368.9,113.4-571.4c0-202.4-40.4-395.3-113.4-571.4c-75.7-182.4-186.4-346.6-323.9-484.1s-301.7-248.3-484.2-323.9
			c-176-73-369-113.4-571.4-113.4c-202.4,0-395.4,40.4-571.4,113.4c-182.5,75.6-346.7,186.4-484.2,323.9
			c-137.5,137.5-248.2,301.7-323.9,484.1c-73,176.1-113.4,369-113.4,571.4c0,202.5,40.4,395.4,113.4,571.4
			c75.7,182.5,186.4,346.7,323.9,484.2c137.5,137.5,301.7,248.3,484.2,323.9c37.4,15.5,75.6,29.5,114.4,42l-42,169.4l-35.4,142.9
			c-118.1-36.4-231-84.5-337.5-142.9c-561.4-308.4-942-905.1-942-1590.9c0-1001.7,812.1-1813.7,1813.8-1813.7
			s1813.8,812,1813.8,1813.7c0,685.8-380.6,1282.5-942,1590.9c-258.7,142.1-555.8,222.9-871.8,222.9
			C5192.3,6689,5101.8,6682.1,5013.4,6668.9"/>
		<path id="path380" class="st37" d="M5295.3,5576.4h-21.7v791.7h21.7V5576.4"/>
		<path id="path382" class="st37" d="M5013.7,5500.6l-310.7,750l20,8.3l310.7-750L5013.7,5500.6"/>
		<path id="path384" class="st37" d="M5072.8,5071.6l-851.6,851.6l15.3,15.3l851.6-851.6L5072.8,5071.6"/>
		<path id="path386" class="st37" d="M5013.7,4975.7l-1112.9,460.9l8.3,20.1l1112.9-461L5013.7,4975.7"/>
		<path id="path388" class="st37" d="M4995.9,4864.4H3791.6v21.7h1204.3L4995.9,4864.4"/>
		<path id="path390" class="st37" d="M3909.2,4293.8l-8.3,20.1l1112.9,460.9l8.3-20L3909.2,4293.8"/>
		<path id="path392" class="st37" d="M4236.6,3812l-15.3,15.3l851.6,851.6l15.3-15.4L4236.6,3812"/>
		<path id="path394" class="st37" d="M4723.1,3491.6l-20,8.3l461,1112.9l20-8.3L4723.1,3491.6"/>
		<path id="path396" class="st37" d="M5295.3,3382.4h-21.7v1204.3h21.7V3382.4"/>
		<path id="path398" class="st37" d="M5845.9,3491.6l-461,1112.9l20,8.3l461-1112.9L5845.9,3491.6"/>
		<path id="path400" class="st37" d="M6332.4,3812l-851.6,851.5l15.3,15.4l851.6-851.6L6332.4,3812"/>
		<path id="path402" class="st37" d="M6659.8,4293.8l-1112.9,461l8.3,20l1112.9-460.9L6659.8,4293.8"/>
		<path id="path404" class="st37" d="M6777.3,4864.4H5573v21.7h1204.3V4864.4"/>
		<path id="path406" class="st37" d="M5555.2,4975.7l-8.3,20l1112.9,461l8.3-20.1L5555.2,4975.7"/>
		<path id="path408" class="st37" d="M5496.2,5071.6l-15.3,15.3l851.6,851.6l15.3-15.3L5496.2,5071.6"/>
		<path id="path410" class="st37" d="M5404.9,5137.7l-20,8.3l461,1112.9l20-8.3L5404.9,5137.7"/>
		<path id="path412" class="st43" d="M4726.5,6704.4h-615.9v-238.3h302c106.5,58.4,219.4,106.5,337.5,142.9L4726.5,6704.4"/>
		<path id="path414" class="st38" d="M10139.5,3944.2c-4.9,0.3-9.7,0.4-14.6,0.4c-96,0-180.8-47.5-232.5-120.2
			c-33.2-46.6-52.7-103.5-52.7-165.1c0-157.6,127.7-285.3,285.3-285.3c157.6,0,285.3,127.7,285.3,285.3
			C10410.2,3812,10290.3,3936.7,10139.5,3944.2"/>
		<path id="path416" class="st34" d="M10130.2,3763.7c-1.7,0.1-3.5,0.1-5.3,0.1c-35.1,0-66.2-17.4-85.2-44
			c-12.1-17.1-19.3-37.9-19.3-60.5c0-57.7,46.8-104.5,104.5-104.5s104.5,46.8,104.5,104.5
			C10229.4,3715.2,10185.5,3760.9,10130.2,3763.7"/>
		<path id="path418" class="st43" d="M5017.9,4985.7c-14.1-34-21.9-71.3-21.9-110.5c0-39.1,7.8-76.4,21.9-110.4
			c14.6-35.3,36-67,62.6-93.6c26.6-26.6,58.3-47.9,93.6-62.6c34-14.1,71.3-21.9,110.4-21.9c39.1,0,76.4,7.8,110.4,21.9
			c35.3,14.7,67,36,93.6,62.6c26.6,26.6,48,58.3,62.6,93.6c14.1,34,21.9,71.3,21.9,110.4c0,39.2-7.8,76.5-21.9,110.5
			c-14.6,35.2-36,67-62.6,93.6c-26.6,26.6-58.3,47.9-93.6,62.6l-1.6-4l-1.3,5.1c-33.2,13.4-69.5,20.8-107.5,20.8
			c-39.1,0-76.4-7.8-110.4-21.9c-18.8-7.9-36.6-17.6-53.2-29c-14.5-10-28-21.2-40.4-33.6C5053.9,5052.7,5032.5,5020.9,5017.9,4985.7
			"/>
		<path id="path420" class="st34" d="M5131.6,4938.6c-8.1-19.5-12.6-40.9-12.6-63.4c0-22.4,4.5-43.8,12.6-63.3
			c8.4-20.2,20.6-38.4,35.9-53.6c15.2-15.3,33.5-27.5,53.7-35.9c19.5-8.1,40.9-12.6,63.3-12.6c22.4,0,43.8,4.5,63.3,12.6
			c20.2,8.4,38.4,20.6,53.7,35.9c15.2,15.2,27.5,33.4,35.9,53.6c8.1,19.5,12.6,40.9,12.6,63.3c0,22.5-4.5,43.9-12.6,63.4
			c-8.4,20.2-20.6,38.4-35.9,53.6c-15.2,15.3-33.4,27.5-53.7,35.9l-0.9-2.2l-0.7,2.9c-19.1,7.6-39.9,11.9-61.7,11.9
			c-22.4,0-43.8-4.5-63.3-12.6c-10.8-4.5-21-10.1-30.5-16.6c-8.3-5.7-16-12.2-23.1-19.3C5152.2,4977,5140,4958.8,5131.6,4938.6"/>
		<path id="path422" class="st43" d="M4785.6,6466.1l42-169.4l196.2-792l97.1-391.8c16.6,11.4,34.4,21.1,53.2,29
			c34,14.1,71.3,21.9,110.4,21.9c38,0,74.3-7.4,107.5-20.8l-107.5,433.4l-193.4,779.2l-27.4,110.5l-50.3,202.8l-8.8,35.5
			l-289.9,1168.3h-277.6l289.4-1168.3l23.6-95.4L4785.6,6466.1"/>
		<path id="path424" class="st44" d="M8114.2,3601.2c-68.5-52.2-112.7-134.5-112.7-227.2c0-157.5,127.7-285.3,285.3-285.3
			c157.6,0,285.3,127.8,285.3,285.3c0,123.8-78.9,229.2-189.1,268.7c-30,10.7-62.4,16.6-96.2,16.6
			C8221.9,3659.3,8162.1,3637.6,8114.2,3601.2"/>
		<path id="path426" class="st34" d="M8223.9,3456.7c-24.9-19-41-48.9-41-82.7c0-57.3,46.5-103.8,103.8-103.8
			c57.3,0,103.8,46.5,103.8,103.8c0,45.1-28.7,83.4-68.8,97.8c-10.9,3.9-22.7,6.1-35,6.1C8263.1,3477.9,8241.4,3470,8223.9,3456.7"
			/>
		<path id="path428" class="st43" d="M8276,4084l-122.9,507.6l-511.5,2112.8H5004.6l8.8-35.5c88.4,13.2,179,20.1,271.1,20.1
			c316,0,613.1-80.8,871.8-222.9h1232l618.5-2441.4l68.4-269.8l39-153.7c47.9,36.4,107.7,58.1,172.6,58.1c33.7,0,66.1-5.9,96.2-16.6
			l-42.9,177.2l-53.2,219.6L8276,4084"/>
		<path id="path430" class="st41" d="M10336.4,4326.9v217c0,16.6-2,32.3-5.8,47.2l-359-92.9l-161.6-41.8l-107.1-27.7l-791.9-204.8
			l-106-23.4L8276,4084l10.8-44.5l53.2-219.6l663.5,163l776.3,200.4l266.4,68.7L10336.4,4326.9"/>
		<path id="path432" class="st43" d="M10124.9,3944.6c4.9,0,9.7-0.1,14.6-0.4l-93.3,307.8l-266.4-68.7l112.5-358.9
			C9944.1,3897.1,10028.9,3944.6,10124.9,3944.6"/>
		<path id="path434" class="st36" d="M8768.9,4764.5l-0.7,11l-14.5-4.3C8758.7,4768.9,8763.7,4766.7,8768.9,4764.5"/>
		<path id="path436" class="st43" d="M9063.9,6466.1l492.8-1571.3c29.5-6.9,61.6-13.5,96.5-19.6c80.4-14,152.4-27.8,216.8-41.8
			l-567.1,1871h-213.4h-232.1l78.3-238.3H9063.9"/>
		<path id="path438" class="st45" d="M9870,4833.4c-64.4,14-136.4,27.8-216.8,41.8c-34.9,6.1-67,12.7-96.5,19.6
			c-146.8,34.4-229.7,77.5-275.8,118.3l-499.2-137.9l218.2-623.2l1330.8,339.1C10302.6,4700,10168.8,4768.5,9870,4833.4"/>
		<path id="path440" class="st46" d="M8768.2,4775.5l39,11.7l-48.6,138.5l-664.3,1892.5C8002,7081.3,7776.1,7275,7502,7326
			l-192,35.7l220.9-657.3h110.8l511.5-2112.8l600.6,179.6L8768.2,4775.5"/>
		<path id="path442" class="st47" d="M9664.7,4550.2c-183.8,74-471.6,101.9-727.3,161.4c-68.4,15.9-123.7,34-168.5,52.9
			c-5.2,2.2-10.2,4.4-15.2,6.7l-600.6-179.6L8276,4084l528.9,116.5l106,23.4l791.9,204.8l107.1,27.7
			C9776.9,4494.9,9726.8,4525.2,9664.7,4550.2"/>
		<path id="path444" class="st48" d="M9402.2,5046.6l-121.2-33.5l-499.3-137.8h-5.2l-17.8,50.5l-664.2,1892.4
			c-92.4,263.1-318.3,456.8-592.4,507.8l-192.1,35.8l-171.7,510.9h394.5l504.4-155.5c49.5-15.2,97.3-34,143.4-55.6
			c271.3-127.4,481.1-361.6,576-650.7l100.8-306.6l78.3-238.2L9402.2,5046.6"/>
		<path id="path446" class="st49" d="M4977.3,11579c0,0-162.5-214.6-111.6-395.1c50.9-180.6-219.9-267.3-124.5-723.9
			c95.4-456.7,1183.4-782.7,1389.4-282c206,500.7-64.5,733.1,167.4,1005.9C6530,11456.7,5658.4,12115.6,4977.3,11579"/>
		<path id="path448" class="st36" d="M6464.1,11903.3c0,0-13,279.4-210,546.7c-196.5,266.7-930.8,133.3-1108-196.2
			c-177.2-329.6,110.3-731.2,110.3-731.2c-31.2,29.5-96.7,65.1-182.8-31c-3.9-4.4-7.5-9-10.6-13.7
			c-87.7-130.8,114.5-381,309.8-358.8c33.6-32,69.4-60.6,106.9-85.5c159-105.5,347.4-146.7,518.2-121
			c108.5,16.3,209.8,59.6,291.9,130.7c55.5,48.1,96.6,108.9,126.6,177.6C6502.8,11419.8,6494.7,11685.2,6464.1,11903.3"/>
		<path id="path450" class="st49" d="M4890,12123.3c176.5,673,1053.3,513.4,1053.3,513.4c540.5-73.4,509.3-646.6,509.3-646.6
			c-106.1,396.6-479.1,366.6-479.1,366.6c-43.2-600-717.1-834.1-717.1-834.1s-120.5,83.2-193.5-44.7
			C5062.9,11477.9,4783.3,11716.7,4890,12123.3"/>
		<path id="path452" class="st37" d="M5264,11402.9c-43.9,25-87.9,20.2-130.5-14l-6.8,8.4c45.8,36.8,95.1,42,142.6,15L5264,11402.9"
			/>
		<path id="path454" class="st37" d="M5328.9,11341.2c-0.2,0.4-25.4,39.3-64.8,61.7l5.4,9.4c41.8-23.8,67.5-63.6,68.6-65.2
			L5328.9,11341.2"/>
		<path id="path456" class="st37" d="M5300.4,11210.2c-3.6,4.5-88.6,111.7-38.4,200.1l9.4-5.4c-46.5-82,36.6-186.9,37.4-188
			L5300.4,11210.2"/>
		<path id="path458" class="st36" d="M5998,10906.8l-14.9-228.1c-10.7-162.9-181.6-251.3-181.6-251.3
			c-191.9,35-331.4,267.6-331.4,267.6l24.6,328.8c69.4-43.8,144-75.6,220.1-95.2c79.8-20.5,161.2-27.7,239.8-21.1
			C5969.1,10906.7,5983.6,10906.5,5998,10906.8"/>
		<path id="path460" class="st50" d="M5998,10906.8l-14.9-228.1l-268.3,249.9c79.8-20.5,161.2-27.7,239.8-21.1
			C5969.1,10906.7,5983.6,10906.5,5998,10906.8"/>
		<path id="path462" class="st51" d="M5576.3,11789.9l234.9,85.4C5641.5,11918.7,5576.3,11789.9,5576.3,11789.9"/>
		<path id="path464" class="st51" d="M6173.2,11942.4l249.8-10.2C6282.4,12036.9,6173.2,11942.4,6173.2,11942.4"/>
		<path id="path466" class="st52" d="M5976.3,11370.7l-2.7,10.5l206.1,53.6l-100.6,335.9l10.4,3.1l103.9-346.7L5976.3,11370.7"/>
		<path id="path468" class="st53" d="M5759.9,11326c0,0,130.8-59.5,442-13.3c0,0-57.5-187.6-192.6-200.2
			C5874.2,11099.9,5764.1,11189.8,5759.9,11326"/>
		<path id="path470" class="st51" d="M5839.5,11658.3c5.9-45-8.7-84-32.5-87.1s-47.9,30.8-53.8,75.8s8.7,84,32.5,87.1
			C5809.6,11737.2,5833.7,11703.3,5839.5,11658.3"/>
		<path id="path472" class="st51" d="M6297.3,11718.1c5.9-45-8.7-84-32.5-87.1c-23.8-3.1-47.9,30.8-53.8,75.8
			c-5.9,45,8.7,84,32.5,87.1C6267.3,11797.1,6291.4,11763.1,6297.3,11718.1"/>
		<path id="path474" class="st16" d="M5718.7,11911.2c-10.7,0-21.5-0.7-32.4-2.1c-135.8-17.8-231.8-142.7-214.1-278.5
			c17.8-135.8,142.6-231.8,278.5-214.1c65.8,8.6,124.3,42.3,164.7,94.9c40.4,52.6,58,117.8,49.4,183.6
			C5948.4,11819.9,5841.4,11911.2,5718.7,11911.2L5718.7,11911.2z M5718.3,11374.4c-142.5,0-266.8,106-285.7,251
			c-20.6,157.7,90.9,302.7,248.6,323.3c157.6,20.6,302.7-90.9,323.3-248.5c10-76.4-10.4-152.1-57.3-213.2
			c-46.9-61-114.9-100.2-191.2-110.1C5743.2,11375.2,5730.7,11374.4,5718.3,11374.4"/>
		<path id="path476" class="st16" d="M6354,11994.7c-8,0-16-0.5-24-1.5c-56-7.3-105.5-39.5-139.5-90.6
			c-34.5-51.9-48.7-117.1-40-183.4c17.8-135.8,127.2-233.8,243.9-218.6c116.7,15.3,197.3,138.2,179.5,274
			C6557.4,11901,6461.4,11994.7,6354,11994.7z M6370.4,11459.1c-127.2,0-240.5,108.4-259.6,255c-9.9,75.8,6.6,150.6,46.4,210.6
			c40.4,60.9,99.9,99.3,167.6,108.1c138.6,18.2,268.1-95.4,288.7-253l0,0c20.6-157.7-75.4-300.7-214-318.8
			C6389.8,11459.7,6380.1,11459.1,6370.4,11459.1"/>
		<path id="path478" class="st16" d="M5998.1,11682.8l-27.1,29.5c30.8,28.3,106.2,69.1,171.6,20.4l-23.9-32.1
			C6063.7,11741.6,6000.8,11685.2,5998.1,11682.8"/>
		<path id="path480" class="st16" d="M5261.2,11502.1l-10.4,39.7l193.7,56.4l11.2-38.4L5261.2,11502.1"/>
		<path id="path482" class="st16" d="M6482.2,11725.9l-2.8,41.5l108.7,29l10.2-38.6L6482.2,11725.9"/>
		<path id="path484" class="st54" d="M6165.1,10597c0,0,458.5-94.9,436.8-705.3c-12-336.7,16.3-591.1,16.3-591.1l376.8-1318.8h-1999
			c0,0,53.3,718.9-81.4,1374.1c-134.7,655.1-230.2,673-134.7,922.4c48.6,126.8,435.2,341.1,435.2,341.1s270.7-226.8,586.4-192
			C6121.4,10462.6,6165.1,10597,6165.1,10597"/>
		<path id="path486" class="st55" d="M5470.1,10695c0,0,139.6-232.6,331.4-267.6l-165.7-206.7c0,0-303.6,96-420.7,398.7
			C5215.1,10619.4,5314.3,10721,5470.1,10695"/>
		<path id="path488" class="st55" d="M5801.5,10427.4c0,0,170.9,88.4,181.6,251.3c0,0,150.5-13.7,182-81.7
			c0,0-61.8-253.6-167.1-376.3C5998,10220.7,5927.7,10320.1,5801.5,10427.4"/>
		<path id="path490" class="st43" d="M7532.9,8111H4032v-238.3h3500.9c21,0,38.1,17,38.1,38v162.2
			C7571,8093.9,7553.9,8111,7532.9,8111"/>
		<path id="path492" class="st36" d="M6690.6,8752.5l5.9-6.1l113.4-119.3c0,0,28.3-46.7-10.5-56.8l27.4-23.6c0,0,32.4-40.9,7.8-62
			c-9.9-8.4-24.5-8.3-35.2-0.9l-57.9,39.5c0,0,52-35.6,26.1-64.5c-1.9-2.2-4.2-3.7-6.9-4.7c-0.8-0.3-1.5-0.5-2.3-0.7
			c-1.8-0.5-3.7-0.7-5.8-0.8c-1.1,0-2.1,0.1-3.2,0.1c-1,0.1-2.2,0.2-3.3,0.4c-2.5,0.4-5.1,0.9-7.8,1.7c-1,0.3-1.9,0.5-2.8,0.8
			c-2.5,0.8-5,1.7-7.6,2.8c-3.1,1.3-6.3,2.8-9.5,4.3c-1.4,0.7-3,1.5-4.4,2.3c-0.7,0.4-1.3,0.7-1.8,1c-1.4,0.7-2.7,1.4-4,2.2
			c-1.6,0.9-3.1,1.8-4.6,2.6c-2.1,1.3-4.4,2.7-6.6,4c-2.9,1.9-5.7,3.8-8.6,5.6c-0.6,0.4-1.3,0.9-1.9,1.3c-1.9,1.3-3.8,2.6-5.6,3.8
			c-3.6,2.6-7.1,5.1-10.4,7.5c-2.1,1.6-4.1,3.1-6,4.6c-12.1,9.2-20.1,16.1-20.1,16.1l-156.9,42.3l-17.4,4.7
			c-10.5-1.9-22.5-3.8-35.3-5.6c-5.1-0.8-10.4-1.4-15.8-2.2c-24.3-3-50.9-5.9-77.3-8.4c-5.8-0.5-11.6-1-17.4-1.6
			c-29.9-2.7-58.3-4.9-81.2-6.5c-3.7-0.3-7.1-0.6-10.5-0.8c-4.1-0.3-7.9-0.5-11.5-0.8l-32.1,46.1l-99.2,142.5l-15.4,22.1l52.5,25.2
			l198.5,95.3l86-1.2l109.4-1.5L6690.6,8752.5"/>
		<path id="path494" class="st56" d="M6752.9,8514.4c-0.6-0.8-1.7-0.9-2.6-0.4l-132.6,91.7l-164.4,55.3c-1,0.3-1.5,1.4-1.2,2.4
			c0.3,0.9,1.4,1.5,2.4,1.1l164.6-55.3c0.2,0,0.3-0.1,0.5-0.2l132.8-91.9C6753.3,8516.5,6753.6,8515.4,6752.9,8514.4
			C6752.9,8514.5,6752.9,8514.4,6752.9,8514.4"/>
		<path id="path496" class="st56" d="M6800.9,8569.1C6800.9,8569.1,6800.9,8569.1,6800.9,8569.1c-0.7-0.8-1.9-0.9-2.7-0.2
			l-136.6,117.6l-189.1,68.3c-1,0.3-1.5,1.4-1.1,2.4c0.3,1,1.4,1.5,2.4,1.1l189.5-68.4c0.2-0.1,0.4-0.2,0.6-0.4l136.8-117.8
			C6801.4,8571.1,6801.5,8569.9,6800.9,8569.1"/>
		<path id="path498" class="st56" d="M6811.4,8626c-0.1-0.1-0.1-0.2-0.2-0.3c-0.8-0.7-2-0.6-2.7,0.1l-108.6,117l-4.2,1.8
			l-181.7,79.9c-1,0.4-1.4,1.5-1,2.5c0.5,0.9,1.5,1.3,2.5,0.9l186.2-81.8c0.2-0.1,0.4-0.3,0.6-0.5l108.8-117.2
			C6811.9,8627.7,6812,8626.7,6811.4,8626"/>
		<path id="path500" class="st35" d="M6282.8,8403.4l-117.7,393.9l-1031.2-187.7l180.1,1417.7c22.4,176.1-102.3,337-278.4,359.4
			s-337-102.3-359.4-278.4l-233.2-1835.9l5.7-0.7c-7.8-45.2-6.1-92.7,6.8-139.8c47-171.2,224-271.9,395.1-224.8
			c13.4,3.6,26.3,8.2,38.8,13.4L6282.8,8403.4"/>
		<g id="g502" transform="scale(1.22699)">
			<path id="path504" class="st57" d="M8191.7,14136.7H8102V16300h89.7V14136.7"/>
		</g>
		<g id="g506" transform="scale(1.06716)">
			<path id="path508" class="st58" d="M9429.9,16035.5h-124.4v202.3c0,34.4,27.8,62.2,62.2,62.2l0,0c34.3,0,62.2-27.8,62.2-62.2
				V16035.5"/>
		</g>
		<g id="g510" transform="scale(1.05456)">
			<path id="path512" class="st57" d="M10147.1,15181.5H8818.2v279.5c0,367,297.5,839,664.4,839l0,0c367,0,664.4-472,664.4-839
				L10147.1,15181.5"/>
		</g>
		<path id="path514" class="st59" d="M10702.4,15954.7H9297.6c-30.4,0-55.1,24.7-55.1,55.1l0,0c0,30.4,24.7,55.1,55.1,55.1h1404.8
			c30.4,0,55-24.7,55-55.1l0,0C10757.4,15979.4,10732.8,15954.7,10702.4,15954.7"/>
		<g id="g516" transform="scale(1.22699)">
			<path id="path518" class="st57" d="M13135.8,14136.7h-89.6V16300h89.6V14136.7"/>
		</g>
		<g id="g520" transform="scale(1.06716)">
			<path id="path522" class="st58" d="M15114.5,16035.5h-124.4v202.3c0,34.4,27.8,62.2,62.2,62.2l0,0c34.3,0,62.2-27.8,62.2-62.2
				V16035.5"/>
		</g>
		<g id="g524" transform="scale(1.05456)">
			<path id="path526" class="st57" d="M15899.7,15181.5h-1328.8v279.5c0,367,297.4,839,664.3,839l0,0c367,0,664.5-472,664.5-839
				V15181.5"/>
		</g>
		<g id="g528" transform="scale(1.03214)">
			<path id="path530" class="st59" d="M16246.6,15457.9h-1360.9c-29.6,0-53.4,23.9-53.4,53.3l0,0c0,29.5,23.8,53.4,53.4,53.4h1360.9
				c29.5,0,53.4-23.9,53.4-53.4l0,0C16300,15481.8,16276.1,15457.9,16246.6,15457.9"/>
		</g>
		<g id="g532" transform="scale(1.22699)">
			<path id="path534" class="st57" d="M3622.9,14136.7h-89.7V16300h89.6L3622.9,14136.7"/>
		</g>
		<g id="g536" transform="scale(1.06716)">
			<path id="path538" class="st58" d="M4176.8,16035.5h-124.4v202.3c0,34.4,27.9,62.2,62.2,62.2l0,0c34.4,0,62.2-27.8,62.2-62.2
				L4176.8,16035.5"/>
		</g>
		<g id="g540" transform="scale(1.05456)">
			<path id="path542" class="st57" d="M4831.2,15181.5H3502.3v279.5c0,367,297.5,839,664.4,839l0,0c367,0,664.4-472,664.4-839
				V15181.5"/>
		</g>
		<path id="path544" class="st59" d="M5096.4,15954.7H3691.7c-30.4,0-55.1,24.7-55.1,55.1l0,0c0,30.4,24.7,55.1,55.1,55.1h1404.7
			c30.4,0,55.1-24.7,55.1-55.1l0,0C5151.5,15979.4,5126.9,15954.7,5096.4,15954.7"/>
		<path id="path546" class="st60" d="M10733.2,9565.4l44.6-802.6c0.9-17.2-12.2-31.9-29.3-32.8l-133-7.4
			c-17.1-1-31.8,12.2-32.7,29.3l-44.6,802.6c-1,17.2,12.1,31.9,29.3,32.8l132.9,7.4C10717.6,9595.7,10732.2,9582.5,10733.2,9565.4"
			/>
		<path id="path548" class="st16" d="M10735.3,9528.1l-62.1-3.5c-4.1-0.2-7.7,3-8,7.1c-0.2,4.2,3,7.7,7.1,7.9l62.1,3.5
			L10735.3,9528.1"/>
		<path id="path550" class="st16" d="M10737.8,9483.1l0.8-15l-38.8-2.2c-4.1-0.2-7.6,2.9-7.9,7.1c-0.2,4.1,3,7.7,7.1,7.9
			L10737.8,9483.1"/>
		<path id="path552" class="st16" d="M10741.1,9423.1l0.8-15l-38.7-2.2c-4.2-0.2-7.7,2.9-7.9,7.1c-0.3,4.1,2.9,7.7,7,7.9
			L10741.1,9423.1"/>
		<path id="path554" class="st16" d="M10744.4,9363l0.9-15l-38.8-2.1c-4.1-0.2-7.7,2.9-7.9,7.1c-0.2,4.1,2.9,7.7,7.1,7.9
			L10744.4,9363"/>
		<path id="path556" class="st16" d="M10747.8,9303l0.8-15l-62.1-3.4c-4.1-0.2-7.7,2.9-7.9,7.1c-0.3,4.1,3,7.7,7.1,7.9L10747.8,9303
			"/>
		<path id="path558" class="st16" d="M10751.1,9243l0.8-15l-38.7-2.1c-4.2-0.3-7.7,2.9-7.9,7.1c-0.3,4.1,2.9,7.6,7,7.9L10751.1,9243
			"/>
		<path id="path560" class="st16" d="M10754.4,9183l0.9-15l-38.8-2.1c-4.1-0.3-7.7,2.9-7.9,7.1c-0.2,4.1,2.9,7.6,7.1,7.9
			L10754.4,9183"/>
		<path id="path562" class="st16" d="M10757.8,9123l0.8-15l-38.8-2.1c-4.1-0.3-7.6,2.9-7.9,7c-0.2,4.2,3,7.7,7.1,8L10757.8,9123"/>
		<path id="path564" class="st16" d="M10761.1,9063l0.8-15l-62.1-3.4c-4.1-0.3-7.7,2.9-7.9,7c-0.2,4.2,3,7.7,7.1,8L10761.1,9063"/>
		<path id="path566" class="st16" d="M10764.4,9003l0.9-15l-38.8-2.2c-4.1-0.2-7.7,3-7.9,7.1c-0.2,4.2,2.9,7.7,7.1,7.9L10764.4,9003
			"/>
		<path id="path568" class="st16" d="M10767.8,8943l0.8-15l-38.7-2.2c-4.2-0.2-7.7,3-8,7.1c-0.2,4.2,3,7.7,7.1,7.9L10767.8,8943"/>
		<path id="path570" class="st16" d="M10771.1,8883l0.8-15l-38.7-2.2c-4.2-0.2-7.7,3-7.9,7.1c-0.3,4.2,2.9,7.7,7.1,7.9L10771.1,8883
			"/>
		<path id="path572" class="st16" d="M10774.4,8823l0.9-15l-62.1-3.5c-4.1-0.2-7.7,3-7.9,7.1c-0.3,4.2,2.9,7.7,7,7.9L10774.4,8823"
			/>
		<path id="path574" class="st16" d="M10605,8983c-2.6,0-4.8,2.1-4.9,4.7l-33.7,498.1c-0.2,2.7,1.9,5.1,4.7,5.3
			c2.7,0.1,5.1-1.9,5.3-4.6l33.6-498.1c0.2-2.8-1.9-5.2-4.6-5.4C10605.3,8983,10605.2,8983,10605,8983"/>
		<path id="path576" class="st61" d="M10571.4,9494.4l-116.7-938.4l-107.8,13.4l116.8,938.4l54.2,127.7l23.1,54.6l9.1-58.6
			L10571.4,9494.4"/>
		<path id="path578" class="st62" d="M10571.4,9494.4l-1-8.3l-107.7,13.4l1,8.3l54.2,127.7l32.2-4L10571.4,9494.4"/>
		<path id="path580" class="st63" d="M10321.9,9507.5l128-937l-107.6-14.7l-128,937l19.6,137.3l8.4,58.7l23.8-54.3L10321.9,9507.5"
			/>
		<path id="path582" class="st62" d="M10321.9,9507.5l1.1-8.3l-107.5-14.7l-1.2,8.3l19.6,137.3l32.2,4.4L10321.9,9507.5"/>
		<path id="path584" class="st64" d="M10812.1,9061.5l-43.7-800.3l-1.4-26.1h-524.2l-33,582.4l-13.8,244L10812.1,9061.5"/>
		<path id="path586" class="st65" d="M13172.9,7990.1l-324.6-13l743.7-5096.9c6.7-46.5,49.6-79,96.2-73l0,0
			c46.6,6.1,79.7,48.5,74.2,95.2L13172.9,7990.1"/>
		<path id="path588" class="st59" d="M14283.1,7977.1h-12269c-68.2,0-123.4,55.3-123.4,123.4v20.9c0,68.1,55.2,123.4,123.4,123.4
			h12269c68.2,0,123.4-55.3,123.4-123.4v-20.9C14406.5,8032.4,14351.3,7977.1,14283.1,7977.1"/>
		<path id="path590" class="st65" d="M3179.7,7990.1h324.6l-743.7-5109.9c-6.7-46.5-49.5-79-96.1-73l0,0
			c-46.6,6.1-79.7,48.5-74.2,95.2L3179.7,7990.1"/>
		<path id="path592" class="st58" d="M9829.5,8241.4H6994.9l560.5,1667.1c41.1,122.2,155.6,204.6,284.5,204.6h2455
			c80.5,0,137.3-79,111.6-155.3L9829.5,8241.4"/>
		<path id="path594" class="st57" d="M9141.8,9077.2c-38-195.2-214.8-325.1-395-290s-295.3,221.7-257.3,417
			c38,195.2,214.8,325,395,290C9064.6,9459.1,9179.8,9272.4,9141.8,9077.2"/>
		<path id="path596" class="st58" d="M7253.7,8240.7H5220c-23.3,0-42.3,18.9-42.3,42.2l0,0c0,23.4,18.9,42.3,42.3,42.3h2033.6
			c23.3,0,42.3-18.9,42.3-42.3l0,0C7295.9,8259.6,7277,8240.7,7253.7,8240.7"/>
		<path id="path598" class="st66" d="M12928.5,8244.3h-1609.3c-9,0-16.4,7.4-16.4,16.5v1044.4c0,9.1,7.4,16.4,16.4,16.4h1609.3
			c9.1,0,16.4-7.3,16.4-16.4V8260.8C12944.9,8251.7,12937.6,8244.3,12928.5,8244.3"/>
		<path id="path600" class="st67" d="M11424,9213c0-19.4-15.7-35.1-35.1-35.1c-19.4,0-35.2,15.7-35.2,35.1
			c0,19.4,15.8,35.1,35.2,35.1S11424,9232.4,11424,9213"/>
		<path id="path602" class="st67" d="M11587.3,9213c0-19.4-15.7-35.1-35.1-35.1c-19.4,0-35.1,15.7-35.1,35.1
			c0,19.4,15.7,35.1,35.1,35.1C11571.6,9248.1,11587.3,9232.4,11587.3,9213"/>
		<path id="path604" class="st67" d="M11750.7,9213c0-19.4-15.8-35.1-35.2-35.1s-35.1,15.7-35.1,35.1c0,19.4,15.7,35.1,35.1,35.1
			C11734.9,9248.1,11750.7,9232.4,11750.7,9213"/>
		<path id="path606" class="st67" d="M11914,9213c0-19.4-15.7-35.1-35.1-35.1s-35.2,15.7-35.2,35.1c0,19.4,15.8,35.1,35.2,35.1
			C11898.3,9248.1,11914,9232.4,11914,9213"/>
		<path id="path608" class="st67" d="M12077.3,9213c0-19.4-15.7-35.1-35.1-35.1c-19.4,0-35.1,15.7-35.1,35.1
			c0,19.4,15.7,35.1,35.1,35.1C12061.6,9248.1,12077.3,9232.4,12077.3,9213"/>
		<path id="path610" class="st67" d="M12240.7,9213c0-19.4-15.8-35.1-35.2-35.1s-35.1,15.7-35.1,35.1c0,19.4,15.7,35.1,35.1,35.1
			C12224.9,9248.1,12240.7,9232.4,12240.7,9213"/>
		<path id="path612" class="st67" d="M12404,9213c0-19.4-15.7-35.1-35.1-35.1c-19.4,0-35.2,15.7-35.2,35.1
			c0,19.4,15.8,35.1,35.2,35.1S12404,9232.4,12404,9213"/>
		<path id="path614" class="st67" d="M12567.3,9213c0-19.4-15.7-35.1-35.1-35.1c-19.4,0-35.1,15.7-35.1,35.1
			c0,19.4,15.7,35.1,35.1,35.1C12551.6,9248.1,12567.3,9232.4,12567.3,9213"/>
		<path id="path616" class="st67" d="M12730.7,9213c0-19.4-15.8-35.1-35.2-35.1s-35.1,15.7-35.1,35.1c0,19.4,15.7,35.1,35.1,35.1
			C12714.9,9248.1,12730.7,9232.4,12730.7,9213"/>
		<path id="path618" class="st67" d="M12894,9213c0-19.4-15.7-35.1-35.1-35.1c-19.4,0-35.2,15.7-35.2,35.1
			c0,19.4,15.8,35.1,35.2,35.1S12894,9232.4,12894,9213"/>
		<path id="path620" class="st33" d="M11388.9,9213L11388.9,9213c-12.2,0-22.1,9.9-22.1,22.1v85.9c0,12.2,9.9,22,22.1,22l0,0
			c12.2,0,22-9.8,22-22v-85.9C11410.9,9222.9,11401.1,9213,11388.9,9213"/>
		<path id="path622" class="st33" d="M11552.2,9213L11552.2,9213c-12.2,0-22.1,9.9-22.1,22.1v85.9c0,12.2,9.9,22,22.1,22l0,0
			c12.2,0,22.1-9.8,22.1-22v-85.9C11574.3,9222.9,11564.4,9213,11552.2,9213"/>
		<path id="path624" class="st33" d="M11715.5,9213L11715.5,9213c-12.2,0-22,9.9-22,22.1v85.9c0,12.2,9.8,22,22,22l0,0
			c12.2,0,22.1-9.8,22.1-22v-85.9C11737.6,9222.9,11727.7,9213,11715.5,9213"/>
		<path id="path626" class="st33" d="M11878.9,9213L11878.9,9213c-12.2,0-22.1,9.9-22.1,22.1v85.9c0,12.2,9.9,22,22.1,22l0,0
			c12.2,0,22-9.8,22-22v-85.9C11900.9,9222.9,11891.1,9213,11878.9,9213"/>
		<path id="path628" class="st33" d="M12042.2,9213L12042.2,9213c-12.2,0-22.1,9.9-22.1,22.1v85.9c0,12.2,9.9,22,22.1,22l0,0
			c12.2,0,22.1-9.8,22.1-22v-85.9C12064.3,9222.9,12054.4,9213,12042.2,9213"/>
		<path id="path630" class="st33" d="M12205.5,9213L12205.5,9213c-12.2,0-22,9.9-22,22.1v85.9c0,12.2,9.8,22,22,22l0,0
			c12.2,0,22.1-9.8,22.1-22v-85.9C12227.6,9222.9,12217.7,9213,12205.5,9213"/>
		<path id="path632" class="st33" d="M12368.9,9213L12368.9,9213c-12.2,0-22.1,9.9-22.1,22.1v85.9c0,12.2,9.9,22,22.1,22l0,0
			c12.2,0,22-9.8,22-22v-85.9C12390.9,9222.9,12381.1,9213,12368.9,9213"/>
		<path id="path634" class="st33" d="M12532.2,9213L12532.2,9213c-12.2,0-22.1,9.9-22.1,22.1v85.9c0,12.2,9.9,22,22.1,22l0,0
			c12.2,0,22.1-9.8,22.1-22v-85.9C12554.3,9222.9,12544.4,9213,12532.2,9213"/>
		<path id="path636" class="st33" d="M12695.5,9213L12695.5,9213c-12.2,0-22,9.9-22,22.1v85.9c0,12.2,9.8,22,22,22l0,0
			c12.2,0,22.1-9.8,22.1-22v-85.9C12717.6,9222.9,12707.7,9213,12695.5,9213"/>
		<path id="path638" class="st33" d="M12858.9,9213L12858.9,9213c-12.2,0-22.1,9.9-22.1,22.1v85.9c0,12.2,9.9,22,22.1,22l0,0
			c12.2,0,22-9.8,22-22v-85.9C12880.9,9222.9,12871.1,9213,12858.9,9213"/>
		<path id="path640" class="st68" d="M11585.8,8878.1h-141.2v141.2h141.2V8878.1"/>
		<path id="path642" class="st68" d="M11829.3,8878.1H11688v141.2h141.3V8878.1"/>
		<path id="path644" class="st68" d="M12072.8,8878.1h-141.3v141.2h141.3V8878.1"/>
		<path id="path646" class="st68" d="M12316.2,8878.1H12175v141.2h141.2V8878.1"/>
		<path id="path648" class="st68" d="M12559.7,8878.1h-141.3v141.2h141.3V8878.1"/>
		<path id="path650" class="st68" d="M12803.1,8878.1h-141.2v141.2h141.2V8878.1"/>
		<path id="path652" class="st68" d="M11585.8,8640.7h-141.2V8782h141.2V8640.7"/>
		<path id="path654" class="st68" d="M11829.3,8640.7H11688V8782h141.3V8640.7"/>
		<path id="path656" class="st68" d="M12072.8,8640.7h-141.3V8782h141.3V8640.7"/>
		<path id="path658" class="st68" d="M12316.2,8640.7H12175V8782h141.2V8640.7"/>
		<path id="path660" class="st68" d="M12559.7,8640.7h-141.3V8782h141.3V8640.7"/>
		<path id="path662" class="st68" d="M12803.1,8640.7h-141.2V8782h141.2V8640.7"/>
		<path id="path664" class="st68" d="M11585.8,8403.4h-141.2v141.2h141.2V8403.4"/>
		<path id="path666" class="st68" d="M11829.3,8403.4H11688v141.2h141.3V8403.4"/>
		<path id="path668" class="st68" d="M12072.8,8403.4h-141.3v141.2h141.3V8403.4"/>
		<path id="path670" class="st68" d="M12316.2,8403.4H12175v141.2h141.2V8403.4"/>
		<path id="path672" class="st68" d="M12559.7,8403.4h-141.3v141.2h141.3V8403.4"/>
		<path id="path674" class="st68" d="M12803.1,8403.4h-141.2v141.2h141.2V8403.4"/>
		<path id="path676" class="st69" d="M4242.6,8295.4h-484.7l-50.1,727.8h584.8L4242.6,8295.4"/>
		<path id="path678" class="st69" d="M3747.1,8427.6h-3.9c-83.8,0-155.9,57-175.2,138.5l-24.5,103.2
			c-12.8,53.9-0.4,109.8,33.9,153.2c34.4,43.5,85.9,68.5,141.3,68.5v-50c-40,0-77.2-18.1-102.1-49.5
			c-24.8-31.4-33.8-71.7-24.5-110.7l24.5-103.1c14-58.9,66-100.1,126.6-100.1h3.9V8427.6"/>
		<path id="path680" class="st70" d="M3874.6,8454.1L3874.6,8454.1c-16.5-1.9-31.4,9.8-33.4,26.3l-43.8,367.2
			c-2,16.5,9.8,31.4,26.2,33.4l0,0c16.4,2,31.4-9.8,33.3-26.2l43.8-367.3C3902.8,8471,3891.1,8456.1,3874.6,8454.1"/>
		<path id="path682" class="st70" d="M4150.5,8455.3L4150.5,8455.3c-16.4,2.6-27.5,18-24.9,34.3l57.9,365.3
			c2.6,16.4,18,27.5,34.3,24.9l0,0c16.4-2.5,27.5-17.9,24.9-34.3l-57.9-365.3C4182.2,8463.9,4166.9,8452.7,4150.5,8455.3"/>
		<path id="path684" class="st70" d="M4007.1,8444.4L4007.1,8444.4c-16.6,0.1-29.9,13.5-29.9,30.1l1.8,369.9
			c0.1,16.5,13.6,29.9,30.1,29.8l0,0c16.6-0.1,29.9-13.5,29.9-30.1l-1.8-369.9C4037.1,8457.7,4023.6,8444.3,4007.1,8444.4"/>
		<path id="path686" class="st71" d="M3648.2,8345.4h704.2l0,0c0-55.5-45-100.5-100.5-100.5h-503.2
			C3693.2,8244.9,3648.2,8289.9,3648.2,8345.4L3648.2,8345.4"/>
		<path id="path688" class="st72" d="M15164.9,14855c0,0-95.2-473.7,0-636.9l133.3,546.9L15164.9,14855"/>
		<path id="path690" class="st73" d="M15575.8,3667.5l-34.3-34.9l-2.5,34.9H15575.8z"/>
		<path id="path692" class="st73" d="M15579.5,3667.5h-3.7l3.8,3.8L15579.5,3667.5z"/>
		<path id="path694" class="st73" d="M15796.6,13193.4c3.5,0.4,7.1,0.9,10.4,1.3l0.6-8.7
			C15804,13188.4,15800.3,13190.9,15796.6,13193.4"/>
		<path id="path696" class="st36" d="M15459.7,3529.8h-346.9l55.3,137.7h370.9l2.5-34.9l-14.6-14.8L15459.7,3529.8"/>
		<path id="path698" class="st74" d="M14299.6,3349.2c84.3,5.8,180.1,38.1,275.5,82.7l275.6,157.6c7.9,5.3,15.7,10.5,23.4,15.7
			l74.6,180.5l35.4-13.6l78.2-30l117.6-45.2l-11.8-29.4l-55.3-137.7h346.9l67.2,88l14.6,14.8l32.2-451.3l11.2-156.6
			c0,0-770.5,0-1162.2,0c-198.2,0-310.3,77.3-330.8,156.6C14071.9,3258.8,14139.2,3338.1,14299.6,3349.2"/>
		<path id="path700" class="st75" d="M16114.9,8706.1l-455.5-2351.8l-79.8-2683l-3.8-3.8h-36.8h-370.9l11.8,29.4l-117.6,45.2
			l-78.2,30l-197.7,2631.5l196.6,2954.2c192-36.1,616.5-108.4,1102.6-142.5L16114.9,8706.1"/>
		<g id="g702" transform="scale(1.06804)">
			<path id="path704" class="st76" d="M15179.2,8620.8c349.1-19,723-14.4,1053.3,43.6l-4.3-207.3l-2.4-113.3l-51.7-2489.7
				l125.9-2530.3h-49h-585.1h-57.4l-392.9,2616.8l-127.3,2210.9l-27.5,476.8C15099.9,8625.5,15139.4,8623,15179.2,8620.8"/>
		</g>
		<g id="g706" transform="scale(1.07295)">
			<path id="path708" class="st74" d="M16176.7,3308.6h-582.4c-11.9-109.4-43.9-252.6-128.7-303.6c-208.7-125.4-188-410.5-188-410.5
				H16300l-26.1,130.6L16176.7,3308.6"/>
		</g>
		<g id="g710" transform="scale(1.00134)">
			<path id="path712" class="st36" d="M16300,13225.3l-256.6-197.8l-254.6,165.2l-1,16.4l-1.3,19.6l-11.4,173.1
				c117.5,13.2,230.3,63.5,320.8,144.8l175.1,157.2L16300,13225.3"/>
		</g>
		<g id="g714" transform="scale(1.07226)">
			<path id="path716" class="st77" d="M14080.3,12025.2c133.3,154.7,457.1,260.4,664.2,294.9l237.8-154.3l239.6,184.8l459.9-99.1
				c312.3-42.5,416.3-154,582.9-421.4l-127.6-1090.6l162.9-2082.7c-42.9-9.9-86.7-18.7-131.4-26.5c-329-57.7-701.4-62.4-1049.2-43.5
				c-39.6,2.2-79,4.6-117.9,7.4c-453.3,31.8-849.2,99.2-1028.3,132.9c-65.1,12.2-101.6,20-101.6,20l85.8,994.7l29.8,345.2l-0.8,0.2
				L14080.3,12025.2"/>
		</g>
		<g id="g718" transform="scale(1.02462)">
			<path id="path720" class="st36" d="M16049,13834.1c0,0,222.4,274.3-2.1,691.8c-224.4,417.5-991,347.9-1148.7,11.2
				c-62.4-133.2-92.6-519.4-92.6-519.4h0.1c-22.9-326.7,17.1-784.3,394-900.3c185-57,386.6-7.9,530.5,121.4l217.7,195.4
				c0,0,351.6,104.4,351.8,296.6C16300,13979.7,16101.7,13916.3,16049,13834.1"/>
		</g>
		<g id="g722" transform="scale(1.01769)">
			<path id="path724" class="st52" d="M16152.5,13653.6l-6.4,7.5c36.6,31.5,48.9,62.1,48.9,88.9c0,28.2-13.7,52.3-26.9,69
				c-52.1-43.6-86.5-106.3-86.9-106.9l-8.7,4.7c1.5,2.7,35.7,65,89.3,109.8l0,0l3.8,3.1c0,0,0.1,0,0.1,0.1l3.8,3l0,0
				c44.2,34.3,88,45.6,130.5,33.5l-2.8-9.5c-39.1,11.2-79.9,0.6-121.4-31.6c12.5-16,28.8-42.9,28.8-75.5
				C16204.6,13720.8,16191.8,13687.6,16152.5,13653.6"/>
		</g>
		<path id="path726" class="st51" d="M16023.5,14294.9l-225,50C15948.5,14404.9,16023.5,14294.9,16023.5,14294.9"/>
		<path id="path728" class="st51" d="M15459.5,14363.1l-227.1-39.2C15348.3,14436.4,15459.5,14363.1,15459.5,14363.1"/>
		<path id="path730" class="st52" d="M15707.9,13863.9l-205.2,25.7l0.9,5.1l75,461.4l9.8-1.7l-74.1-456.2l194.8-24.3
			L15707.9,13863.9"/>
		<path id="path732" class="st53" d="M15911,13848.9c0,0-112.5-70-402.5-65c0,0,75-164.6,200-160S15923.5,13723.9,15911,13848.9"/>
		<path id="path734" class="st51" d="M15796.6,14192.2c0-45.4,19.5-82.2,43.5-82.2c24.1,0,43.5,36.8,43.5,82.2
			c0,45.3-19.4,82.1-43.5,82.1C15816.1,14274.3,15796.6,14237.5,15796.6,14192.2"/>
		<path id="path736" class="st51" d="M15302.4,14218.1c0-45.3,19.5-82.1,43.5-82.1c24.1,0,43.5,36.8,43.5,82.1
			c0,45.4-19.4,82.2-43.5,82.2C15321.9,14300.3,15302.4,14263.5,15302.4,14218.1"/>
		<path id="path738" class="st78" d="M16292.9,13722.2c0,0-98.2-409.2-485.2-475.7l-11.4,173.3c117.6,13.2,230.6,63.6,321.2,145
			L16292.9,13722.2"/>
		<g id="g740" transform="scale(1.02256)">
			<path id="path742" class="st72" d="M16156.5,13935l-160.5-155.9l-65.5,633.1c0,0-19.5-100.1-83.1-119.7
				c-63.6-19.6,0,141.8,0,141.8s-19.5-73.3-102.7-73.3c-83.1,0,0,112.4,0,112.4s-595.7-279.4-867.4-96.1
				c-234.5,158.3,119.3,550.9,525.2,546c405.8-4.9,593.5-205.4,593.5-205.4s30.6,92.9,85.2,88c54.7-4.9-28.4-107.6-28.4-107.6
				s112.4,4.9,122.2-29.3s-65.9-44-65.9-44s190.9-203.2,144.2-449.9C16206.5,13928.5,16156.5,13935,16156.5,13935"/>
		</g>
		<g id="g744" transform="scale(1.07523)">
			<path id="path746" class="st79" d="M15251.8,12301l-82.4-3920.3l1130.6,29.6v1905.2l-25.3,1227.3
				c-6.4,315.6-218.7,591.1-523.3,674C15636.8,12248,15391.5,12286.7,15251.8,12301"/>
		</g>
		<path id="path748" class="st79" d="M15810,13210.4l-204.1-4199.2l-819.5,119.5l311.4,3763.5
			C15097.8,12894.2,15298.1,13177.8,15810,13210.4"/>
		<path id="path750" class="st80" d="M15459.5,9823.1h-539.4v196.2h539.4V9823.1"/>
		<path id="path752" class="st81" d="M15097.8,12894.2l-453.6-1936.6l-1221.3-69.1l-70.2-554.4h1606.1l59,909.1L15097.8,12894.2"/>
		<path id="path754" class="st82" d="M14560.4,10282.7h-2479.9c-46.2,0-83.8,37.5-83.8,83.8v527.8c0,46.3,37.6,83.8,83.8,83.8
			h2479.9c46.3,0,83.8-37.5,83.8-83.8v-527.8C14644.2,10320.2,14606.7,10282.7,14560.4,10282.7"/>
		<path id="path756" class="st83" d="M12556.8,10630.4c0-98.8-80.1-178.9-178.9-178.9c-98.9,0-179,80.1-179,178.9
			c0,98.8,80.1,179,179,179C12476.7,10809.4,12556.8,10729.2,12556.8,10630.4"/>
		<path id="path758" class="st83" d="M14392,10602.8h-1733.5v27.6H14392V10602.8"/>
		<path id="path760" class="st83" d="M14022,10729.4h-1078.1v27.5H14022V10729.4"/>
		<path id="path762" class="st83" d="M14022,10471.4h-1078.1v27.6H14022V10471.4"/>
		<path id="path764" class="st84" d="M14791.6,10964.6h-2532.7c-31.7,0-57.4,25.7-57.4,57.4v580.7c0,31.7,25.7,57.4,57.4,57.4
			h2532.7c31.7,0,57.4-25.7,57.4-57.4V11022C14849,10990.3,14823.3,10964.6,14791.6,10964.6"/>
		<path id="path766" class="st83" d="M12761.6,11312.4c0-98.9-80.2-179-179-179s-178.9,80.1-178.9,179
			c0,98.8,80.1,178.9,178.9,178.9C12681.4,11491.3,12761.6,11411.2,12761.6,11312.4"/>
		<path id="path768" class="st83" d="M14596.7,11284.8h-1733.4v27.6h1733.4V11284.8"/>
		<path id="path770" class="st83" d="M14226.7,11411.3h-1078v27.6h1078V11411.3"/>
		<path id="path772" class="st83" d="M14226.7,11153.3h-1078v27.6h1078V11153.3"/>
		<path id="path774" class="st80" d="M15810,13210.4l-424.2-526.8l274.2-103.6l-315-390l356.9-1204.8L15810,13210.4"/>
		<g id="g776" transform="scale(1.03863)">
			<path id="path778" class="st80" d="M15789.2,12734.5l-45.9-2184.5l556.7,1144.5l-258.2,465.7l191.1,105.9L15789.2,12734.5"/>
		</g>
		<path id="path780" class="st36" d="M14160,10382.7l-270.4,102.9c0,0-334.1,10.6-392.9,34.3c-58.9,23.6,16.2-169.5,212.7-172.1
			l-390.9-82.6c0,0-266.4,16.2-320-8.7c-53.5-25,196.4-111.2,269.4-118.3c73.1-7,577.1-22.3,577.1-22.3l367.7-5L14160,10382.7"/>
		<g id="g782" transform="scale(1.07336)">
			<path id="path784" class="st79" d="M15492.1,11782.2l-687-1569.5L13167.6,9683l103-533l1966,454.8l965.8,1835.7
				c97.6,185.7,32.8,415.4-147.7,522.6l0,0C15850.9,12084.2,15587.1,11999.3,15492.1,11782.2"/>
		</g>
		<g id="g786" transform="scale(1.06833)">
			<path id="path788" class="st85" d="M13350.4,9180c-8.6,0-16.3,5.8-18.3,14.5c-2.3,10,3.9,20.1,14,22.5l1949.6,449.4l966.4,1836.6
				c4.8,9.2,16.1,12.7,25.3,7.9c9-4.8,12.6-16.1,7.8-25.3l-970.4-1844.3c-2.5-4.8-7-8.3-12.3-9.5l-1957.9-451.3
				C13353.2,9180.1,13351.8,9180,13350.4,9180"/>
		</g>
		<g id="g790" transform="scale(1.02156)">
			<path id="path792" class="st85" d="M13853.3,10160.3c-8.3,0-15.9,5.2-18.7,13.5c-3.3,10.3,2.4,21.4,12.7,24.7l1694.2,548
				l718.3,1641c4.3,9.9,15.8,14.4,25.7,10.1c9.9-4.3,14.5-15.9,10.1-25.8l-721.8-1649.1c-2.3-5.1-6.6-9.1-12-10.8l-1702.5-550.7
				C13857.4,10160.6,13855.3,10160.3,13853.3,10160.3"/>
		</g>
		<path id="path794" class="st85" d="M14510,10019.3c0-41.4-33.6-75-75-75s-75,33.6-75,75s33.6,75,75,75
			S14510,10060.7,14510,10019.3"/>
		<path id="path796" class="st85" d="M14813.3,10094.3c0-41.4-33.6-75-75-75s-74.9,33.6-74.9,75s33.5,75,74.9,75
			S14813.3,10135.7,14813.3,10094.3"/>
		<g id="g798" transform="scale(1.05399)">
			<path id="path800" class="st80" d="M16300,9319.9h-511.8v186.2h511.8V9319.9"/>
		</g>
	</g>
</g>
</svg>
