<?xml version="1.0" encoding="utf-8"?>
<!-- Generator: Adobe Illustrator 26.0.1, SVG Export Plug-In . SVG Version: 6.00 Build 0)  -->
<svg version="1.1"
	 id="svg2" xmlns:cc="http://creativecommons.org/ns#" xmlns:dc="http://purl.org/dc/elements/1.1/" xmlns:rdf="http://www.w3.org/1999/02/22-rdf-syntax-ns#" xmlns:svg="http://www.w3.org/2000/svg"
	 xmlns="http://www.w3.org/2000/svg" xmlns:xlink="http://www.w3.org/1999/xlink" x="0px" y="0px" viewBox="0 0 2666.7 2666.7"
	 style="enable-background:new 0 0 2666.7 2666.7;" xml:space="preserve">
<style type="text/css">
	.st0{fill:#FFFFFF;}
	.st1{fill:#8D99AE;}
	.st2{clip-path:url(#SVGID_00000079456556467367379280000016235095642316318364_);}
	.st3{fill:#E8C395;}
	.st4{fill:#FFE9D2;}
	.st5{fill:#2B2D42;}
	.st6{fill:#EDF2F4;}
	.st7{fill:#F9D8AD;}
	.st8{fill:#99583F;}
	.st9{fill:#C0CCCE;}
	.st10{fill:#C27D56;}
	.st11{fill:#FAFEFF;}
	.st12{fill:#F83B4F;}
	.st13{fill:#5F130D;}
	.st14{fill:#113C54;}
	.st15{fill:#FFBA55;}
	.st16{fill:#8BC3C0;}
	.st17{fill:#357092;}
	.st18{fill:#FF966C;}
	.st19{fill:#FC571E;}
	.st20{fill:#B62C43;}
</style>
<g id="g10" transform="matrix(1.3333333,0,0,-1.3333333,0,2666.6667)">
	<g id="g12" transform="scale(0.1)">
		<g id="g14" transform="scale(1.22699)">
			<path id="path16" class="st0" d="M16300,0H0v16300h16300V0"/>
		</g>
		<g id="g18" transform="scale(1.0817)">
			<path id="path20" class="st1" d="M15854.7,9690c0-3650.6-2959.4-6610-6610-6610s-6610,2959.4-6610,6610
				c0,3650.6,2959.4,6610,6610,6610S15854.7,13340.6,15854.7,9690"/>
		</g>
		<g id="g22">
			<g>
				<defs>
					<path id="SVGID_1_" d="M17150,10481.7c0-3948.8-3201.2-7150-7150-7150c-3948.8,0-7150,3201.2-7150,7150
						c0,3948.9,3201.2,7150,7150,7150C13948.8,17631.7,17150,14430.6,17150,10481.7L17150,10481.7z"/>
				</defs>
				<clipPath id="SVGID_00000024723206103753087100000005627785191461733792_">
					<use xlink:href="#SVGID_1_"  style="overflow:visible;"/>
				</clipPath>
				<g id="g24" style="clip-path:url(#SVGID_00000024723206103753087100000005627785191461733792_);">
					<path id="path66" class="st3" d="M10185,7790H2580v870h7605V7790"/>
					<path id="path68" class="st3" d="M9180,2525h-546.2v5265H9180V2525"/>
					<path id="path70" class="st3" d="M7211.8,10911.4L7576.7,9390l126.7,46.7L7297,10933.2c-7.1,26.2-36.1,39.7-60.9,28.4l0,0
						C7217.1,10952.8,7206.9,10931.8,7211.8,10911.4"/>
					<path id="path72" class="st3" d="M7491.1,10935.4L7672,9381.3l131.3,31.3l-225,1534.2c-4,27-31.1,43.9-57,35.5l0,0
						C7501.3,10975.9,7488.7,10956.2,7491.1,10935.4"/>
					<path id="path74" class="st3" d="M7799.8,10705.3l-72-1562.9l134.7,9.7l25.2,1550.4c0.4,27.3-23.7,48.3-50.6,44.2l0,0
						C7816.4,10743.6,7800.7,10726.2,7799.8,10705.3"/>
					<path id="path76" class="st3" d="M9077.3,10815.8l-930.9-1708l155.8-62.4l871.8,1719.5c15.3,30.1-0.2,66.8-32.5,76.9l0,0
						C9116.7,10849.6,9089.8,10838.7,9077.3,10815.8"/>
					<path id="path78" class="st3" d="M8050.3,11066.2L7898.7,9127l167.7,6.7l93,1925.6c1.6,33.8-27.5,60.9-61.1,56.9l0,0
						C8072.5,11113.1,8052.4,11092.2,8050.3,11066.2"/>
					<path id="path80" class="st3" d="M8316.7,10508.8l440-125.5l-106.4-113.5l-140.3,26.9l-247.8-976.4l-102.7,61l298.6,922
						l-141.4,47.8V10508.8"/>
					<path id="path82" class="st3" d="M8583.3,10709.7l-66.6-105.5l24.8,119.2l-60.9,19.8l-43.9-139v153.3l-120,39.2v-287.9
						l440-125.5l150.2,220.9L8583.3,10709.7"/>
					<path id="path84" class="st4" d="M8710,9763.3H7350L7503.3,8660h1053.3L8710,9763.3"/>
					<path id="path86" class="st3" d="M10130,9127H9010.3l-360-467H10130V9127"/>
					<path id="path88" class="st4" d="M9957.9,9564.2h-265.1V9127h437.2v265.1C10130,9487.2,10052.9,9564.2,9957.9,9564.2"/>
					<path id="path90" class="st5" d="M10159.2,12019.2h-2805v2325h2805V12019.2"/>
					<path id="path92" class="st1" d="M9974.2,12172.5h-2435v2018.3h2435V12172.5"/>
					<path id="path94" class="st6" d="M8448.3,13056.5c0,155.2,125.8,281,281,281s281-125.8,281-281s-125.8-281-281-281
						S8448.3,12901.3,8448.3,13056.5"/>
					<path id="path96" class="st1" d="M9974.2,12172.5h-2435v671.7h2435V12172.5"/>
					<path id="path98" class="st5" d="M8964.2,12844.2l-686.7,620.7l-738.3-620.7H8964.2z"/>
					<path id="path100" class="st5" d="M8729.3,13056.5l768.2,671.2l476.7-454.5v-429h-1010L8729.3,13056.5"/>
					<path id="path102" class="st6" d="M8964.2,12844.2l-712.5-671.7h477.6L8964.2,12844.2z"/>
					<g id="g104" transform="scale(1.02824)">
						<path id="path106" class="st6" d="M10464.5,15900.8c0,221.5-187.5,399.2-412.3,383.2c-189.5-13.5-342.3-167-355.1-356.4
							c-7.3-108.3,30.2-207.8,95.9-281.7c62.4-70.4,103-157.5,120.1-250l14-76h305.2l13.6,74.2c17.1,92.4,57,179.9,119.9,249.7
							C10427.2,15711.9,10464.5,15802,10464.5,15900.8"/>
					</g>
					<path id="path108" class="st1" d="M10285.8,16221c-18.5,0-33.5-15-33.5-33.4v-16.9c0-18.4,15-33.4,33.5-33.4h33.4v50.3
						C10319.2,16206,10304.2,16221,10285.8,16221L10285.8,16221z M10409.6,16137.3h33.4c18.5,0,33.5,15,33.5,33.4v16.9
						c0,18.4-15,33.4-33.5,33.4c-18.4,0-33.4-15-33.4-33.4V16137.3z M10409.6,15745.6h-10v381.7h-70.4v-381.7h-10v381.7h-33.4
						c-24,0-43.5,19.5-43.5,43.4v16.9c0,23.9,19.5,43.4,43.5,43.4c23.9,0,43.4-19.5,43.4-43.4v-50.3h70.4v50.3
						c0,23.9,19.5,43.4,43.4,43.4c24,0,43.5-19.5,43.5-43.4v-16.9c0-23.9-19.5-43.4-43.5-43.4h-33.4V15745.6"/>
					<path id="path110" class="st5" d="M10521.3,15752.6h-313.8v-43.5c0-86.6,70.3-156.8,156.9-156.8l0,0
						c86.6,0,156.9,70.2,156.9,156.8L10521.3,15752.6"/>
				</g>
			</g>
		</g>
		<g id="g120" transform="scale(1.0661)">
			<path id="path122" class="st7" d="M16300,1831.9H2459.9v85.4H16300V1831.9"/>
		</g>
		<path id="path124" class="st8" d="M13249.4,6890.6l-218.5-751.6l1010.3-4186h400L13249.4,6890.6"/>
		<g id="g126" transform="scale(1.00255)">
			<path id="path128" class="st8" d="M15111.2,6873.1l-217.9-749.7L15901,1948h399L15111.2,6873.1"/>
		</g>
		<g id="g130" transform="scale(1.02945)">
			<path id="path132" class="st9" d="M14388.4,7256.3h291.4l1620.2,6727.6h-291.4L14388.4,7256.3"/>
		</g>
		<g id="g134" transform="scale(1.06083)">
			<path id="path136" class="st10" d="M16094.1,14159.4L16094.1,14159.4c-84.8,0-158.5-58.1-178.3-140.4L12990.9,1841h377.1
				l2904.3,12092.4C16300,14048.6,16212.6,14159.4,16094.1,14159.4"/>
		</g>
		<path id="path138" class="st10" d="M15361.9,14780.8c29.5,122.3-63.2,240-189,240l0,0c-89.8,0-167.9-61.5-189-148.8L11865.7,1953
			h400L15361.9,14780.8"/>
		<g id="g140" transform="scale(1.01105)">
			<path id="path142" class="st11" d="M14650.3,7388.4H12870l1649.7,6850.1H16300L14650.3,7388.4"/>
		</g>
		<path id="path144" class="st12" d="M14106.9,10184.2c-10.6-102.2,5.6-169.1,48.3-198.8c9.5-6.6,20.1-11,31.2-15.6
			c8.5-3.5,17.2-7.2,25.6-11.9c89.5-50,102.6-184.2,104.7-280.8l13.8-646.1c0.6-26.5,5.6-89.4,40-99.8c28.3-8.6,51.4,30.1,60,47.1
			c54,106.6,73.2,234.8,91.7,358.9l5.3,35.4c23.2,151.9,52.3,304,86.6,452c23.6,101.9,51.5,208.5,109,293c4.1,6,11.7,17.2,24.3,19.6
			c7.4,1.4,14.4-0.1,20.1-4.2c14.5-10.4,18.2-35.6,21.7-60c1.2-7.8,2.2-15.1,3.6-21.5c3.5-17,14.5-31.5,30.8-40.7
			c16.8-9.4,37.2-11.8,53.4-6.1c33.5,11.7,56.9,46,77.2,81.4c162.5,282.8,203.1,631.4,236.2,1024.7
			c12.7,151.2,18.3,322.1-77.2,435.7c-8.8,10.4-18.5,20.4-27.9,30.1c-12.4,12.6-25.2,25.7-36.5,40.4c-13.1,17.2-23.9,36.4-34.4,54.9
			c-7.4,13.2-15.1,26.8-23.5,39.3c-75.5,113.4-226,158.1-350.1,104.1c-201.6-87.9-268.6-348.9-327.7-579.2
			c-9.5-37.2-18.5-72.3-28-106.6C14200.3,10824.2,14140.4,10506.1,14106.9,10184.2L14106.9,10184.2z M14378.7,8909.9
			c-4.7,0-9.4,0.7-14,2.2c-43,13-53.2,71.6-54.2,118.5l-13.8,646.1c-2,91.7-13.9,218.8-94.4,263.8c-7.5,4.1-15.3,7.4-23.6,10.8
			c-11.6,4.9-23.6,9.9-34.9,17.7c-49.8,34.7-68.4,105.7-56.8,217.3l0,0c33.6,323,93.8,642.1,178.8,948.6c9.4,34,18.4,69,27.9,106.1
			c60.3,234.8,128.5,500.8,339.2,592.6c132.7,57.8,293.8,10,374.6-111.3c8.8-13.1,16.7-27.1,24.3-40.6
			c10.2-17.9,20.6-36.4,32.9-52.5c10.6-13.8,22.4-25.9,34.9-38.6c9.6-9.9,19.7-20.2,28.9-31.2c95.6-113.8,95.8-283.7,81.8-450.2
			c-33.3-395.8-74.3-746.7-238.7-1033.1c-22.2-38.7-48.3-76.4-88-90.3c-21.7-7.6-47.8-4.8-69.8,7.6c-21.4,12.1-35.9,31.3-40.6,54
			c-1.5,7-2.6,14.6-3.8,22.7c-2.5,17.4-5.9,41.2-13.5,46.7c-0.9,0.6-2.3,1.2-4.9,0.7c-3.8-0.7-7.7-5.8-11.4-11.2
			c-55.6-81.6-82.9-186.1-106-286.2c-34.2-147.5-63.2-299.1-86.3-450.5l-5.3-35.4c-18.8-125.6-38.2-255.5-93.6-364.9
			C14428.9,8930.8,14404.1,8909.9,14378.7,8909.9"/>
		<path id="path146" class="st8" d="M14769.4,7470h342.8l-80.5-334.3h-342.9L14769.4,7470"/>
		<path id="path148" class="st10" d="M14769.4,7470h-2057.2l-80.5-334.3h2057.1L14769.4,7470"/>
		<path id="path150" class="st13" d="M13274.3,6255.8c0,96.4-78.1,174.5-174.5,174.5s-174.5-78.1-174.5-174.5
			s78.1-174.5,174.5-174.5S13274.3,6159.4,13274.3,6255.8"/>
		<path id="path152" class="st13" d="M15196.2,6255.8c0,96.4-78.1,174.5-174.5,174.5s-174.5-78.1-174.5-174.5
			s78.1-174.5,174.5-174.5S15196.2,6159.4,15196.2,6255.8"/>
		<path id="path154" class="st14" d="M12947.9,11818c2.1-111.5,2.2-222.9,0.4-334.4c-0.2-16.3-0.8-33.4-8.8-47.5
			c-5.9-10.4-15.4-18.3-24.6-25.9c-151.6-124.8-305.9-251.3-486.3-328.9c-19.7-8.5-40-16.5-61.4-19c-29.6-3.6-59.2,3.4-88.1,10.5
			c-111.6,27.4-222.5,56.9-332.9,88.5c-12.5,3.6-25.7,7.7-33.9,17.7c-8.7,10.5-9.9,25.2-10.3,38.9c-5.1,161.3,37,323.8,119.8,462.4
			L12947.9,11818"/>
		<path id="path156" class="st12" d="M14526.7,10931.3c38.4-6.3,77.5-12.7,112.1-30.5c48.9-25.1,83.9-70,120.8-110.8
			c36.9-40.8,80.9-80.5,135.3-88.5c-52.7-30.1-107.5-60.9-167.9-66.6c-36.7-3.4-73.7,2.6-109.1,12.6
			c-103.8,29.1-197.4,92.6-263.6,177.6C14249.1,10960.1,14436.9,10945.8,14526.7,10931.3"/>
		<path id="path158" class="st15" d="M12668.1,11508.6c10.1,19.9,21.7,45.2,31.9,65.1c579.5-156.3,1155.2-313.2,1679.3-605.7
			l-45-135.5c-147.9,16.4-289.2,62.4-428.5,114.5C13485.8,11104,13048.7,11271.8,12668.1,11508.6"/>
		<path id="path160" class="st16" d="M12353.3,11456.5c156.8-94.2,317.5-181.7,481.6-262.3c121.9,72.1,228.1,139,368.1,160.8
			c12,1.9,25.9,2.7,34.5-5.9c4.6-4.6,6.7-11.3,7.2-17.9c1.3-19-9-36.6-19.6-52.4c-75.1-112.3-179.8-204.5-300.7-264.7
			c-219.8,57.7-453.3,134.3-654.1,240.9L12353.3,11456.5"/>
		<path id="path162" class="st16" d="M12014.1,11604c258.2,45,514.8,99.6,769,163.8c122.4,30.8,267.5-56.8,385.4-101.8
			c32.9-12.6,74.3-21.7,91.8-52.2c8.2-14.5,9.2-31.7,9.7-48.4c1.3-50-0.7-100.9,11.5-149.5s41.8-96,88.2-114.9
			c52.3,101.9,46.9,223,34.6,337c-8.8,81.5-108.4,134.2-182.7,169c-103.8,48.7-207.6,97.3-311.3,145.9c-38,17.8-76.3,35.7-117.4,44
			c-48,9.7-97.7,5.8-146.5,1.4c-255.7-22.9-510.5-56.6-763.3-101L12014.1,11604"/>
		<path id="path164" class="st14" d="M11006.6,11450.1c153.3,150.5,381,221.1,592.5,183.6c9.4-1.7,19.2-3.7,26.6-9.7
			c12.8-10.3,15-28.6,16.1-45c5.5-82.5,7.2-173.2-43.8-238.3c-43.5-55.7-115.4-79.3-182.9-100.1c-46.3-14.2-92.6-28.5-138.9-42.7
			L11006.6,11450.1"/>
		<path id="path166" class="st17" d="M12034.2,10990.5c-110,19.1-220.7,38.3-325.8,76c-105.1,37.8-205.3,95.5-277.6,180.6
			c-29.2,34.3-54.1,74.1-61,118.6c-5.9,38.5,1.9,77.9,14.3,114.7c44.8,133.4,148,241.1,267.4,315.6
			c119.3,74.4,254.6,118.8,389.9,157.4C12191.8,11670.1,12184.6,11273.9,12034.2,10990.5"/>
		<path id="path168" class="st17" d="M10535.3,9117c-215.5,71.9-425.1,161.2-626.2,266.9c-45.8,24.1-94.8,53.2-112,102
			c-18.5,52.8,6.4,109.9,30.8,160.1c275.9,568.5,558.3,1133.8,847.1,1695.9c39.1,76.1,122.8,118.6,207.3,105.4l40.5-6.4
			c166.3-25.9,299.8-163.1,427.9-272.2c13.4-11.4,27.4-24.5,29.9-41.8c1.7-11.9-2.5-23.8-6.5-35.1
			c-228.7-632.4-480.7-1256.3-755.3-1870.1C10599.2,9178,10578.5,9137.5,10535.3,9117"/>
		<path id="path170" class="st14" d="M9553.9,4613H9049c-480.5,0-870-595.5-870-1330c0-21.5,0.4-42.9,1-64.2l-812.3,170.8
			l-625.1-170l-53.3-619.5h626.7l153.3,126.2h598.1l107.4-107.4H8295c150.3-398,431.7-665.9,754-665.9h550.8c0,0,0.6,0.7,1.7,2
			c458.4,37.8,822.4,617.9,822.4,1328C10423.9,4017.5,10034.4,4613,9553.9,4613"/>
		<path id="path172" class="st16" d="M8175.9,8045.7l606.4,86.9c78.9,11.3,152.2-43.2,164.2-122l0,0
			c11.7-76.9-39.3-149.4-115.7-164.4l-1118.8-219.3l-286.4,316L8175.9,8045.7"/>
		<path id="path174" class="st8" d="M8469.6,8440.5c-29.5-50.6-55.2-108.8-43.4-166.3c9.6-46.4,42.1-84.2,73.8-119.3
			c14.3-15.9,31.8-32.9,53-31.5c23.3,1.7,38.5,24.4,50,44.7c10,17.7,20,35.3,30,53c24.5,43.2,49.2,87,62.2,135
			c13,47.9,13.2,101.3-10.1,145.2c-19,35.8-72.9,81.4-117.7,67.3C8525.9,8555.5,8490.1,8475.8,8469.6,8440.5"/>
		<path id="path176" class="st14" d="M8500.3,7735.3c-18.9,162-5.9,325.7,7.2,488.2c10.2,126,20.4,252.1,36.6,377.5
			c8.2,63.6,18,127,30,189.9c7.8,40.9,2.5,118.5,37.5,147.7c27,22.5,93,21.9,126.5,21.4c47.1-0.8,93.6-11.5,136.3-31.4
			c26.8-12.5,54.3-31.3,60.8-60.1c5.6-24.5-5.7-49.6-19.2-70.9c-26.1-41.1-61.3-76-86.8-117.5c-30.3-49.2-46-105.8-59-162.1
			c-14-60.7-25.4-122-36.7-183.3c-35.4-191.7-71-387-47.6-580.5c5-41.2,12.1-85.4-7.2-122.1c-14.2-27.2-42.7-46.4-73.2-49.5
			s-62.2,10.1-81.6,33.9C8502.6,7642.5,8504.2,7702.1,8500.3,7735.3"/>
		<path id="path178" class="st18" d="M6515.5,8943.6c201.7-295.3,431.9-571.2,686.4-822.4c38-37.5,77-74.9,123-102
			c52.5-30.9,112.2-47.4,172.2-57.8c176.8-30.7,358.6-20,535.7,8.9c138.5,22.6,277.1,45.2,415.7,67.8c28.3,4.6,60.4,11.9,74,37.1
			c8,14.9,7.5,32.8,5.7,49.7c-7.8,74-34.9,146-78,206.7c45.9,67.4,72.3,152.7,142.8,193.6c54,31.3,120.9,22.2,183.2,25.2
			c62.3,2.9,135,29.9,147.7,90.9c1.7,8.3,1.6,18.2-4.9,23.4c-4.7,3.8-11.2,3.9-17.2,3.9c-80.1,0.4-160.2,12.3-237,35.3
			c-61.6,18.3-127.1,43.9-188,23.4c-46.5-15.6-80.4-55.4-109.4-95c-42.7-58.2-66.2-125.6-98.7-190
			c-327,30.5-639.1,103.4-949.5,210.7c-251.5,297.6-354.9,620.4-523.8,971.6c-83.8,174.3-158.8,349.7-242.6,524l-133.6,59.4
			c-27.1-114.8-58-247.2-68.5-364.7L6515.5,8943.6"/>
		<path id="path180" class="st18" d="M8769.9,8544.5c38-16.5,41.2-68.3,38.5-109.7c-8.8-133.4-19.6-273.3-92.3-385.5
			c-5.7-8.8-12.3-17.8-22-21.6c-8.8-3.5-18.7-2.2-28.1-0.8c-29.1,4.4-58.2,8.7-87.3,13c-24.8,3.7-54.2,11-62.5,34.7
			c-3.3,9.5-2.3,19.9-1.3,29.8c8.9,88.6,17.8,177.1,26.7,265.7c1.3,12.6,3.5,26.9,13.9,34.2c4.8,3.3,10.6,4.6,16.2,5.8
			c25.5,5.6,51,11.1,76.6,16.7c-24.2,0.7-49.5,1.7-70.6,13.6c-21.1,11.9-36,38.6-26.5,60.9c8.4,19.7,26,32.1,46.1,39.6
			c20.1,7.5,41.6,10.4,63,12.2C8701,8556.4,8732.7,8560.7,8769.9,8544.5"/>
		<path id="path182" class="st14" d="M3379.7,3232.7V4213h769.6v1147.8h1820.1v514.3c414.1,0,855.5,47.8,1256.1-56.8
			c400.7-104.5,783.4-342.6,976.2-709.1c54.3-103.3,92.6-214.3,125-326.4c149.2-516.2,177.4-1067,81.6-1595.8l-1559-280.7
			l-1485.8-230.8L3474.9,2723L3379.7,3232.7"/>
		<path id="path184" class="st17" d="M5690.5,2516.2H4416.2c-195.3,0-363.7,135.4-407.7,325.7c-71.6,309.6-71.6,619.2,0,928.8
			c44,190.3,212.4,325.7,407.7,325.7h1274.3V2516.2"/>
		<path id="path186" class="st17" d="M7848.1,6277.5c1347.5-415.7,1264.6-2489.9,1264.6-2489.9l-643.8-319.1L7425.7,3153
			l-437.8,1786.6l-971.9,726.7v440L7848.1,6277.5"/>
		<path id="path188" class="st16" d="M6355.1,4873c0,0,620.9-106.7,620.9-1833.4l643.8,319.1c0,0,82.9,2074.3-1264.6,2489.9
			L6355.1,4873"/>
		<path id="path190" class="st17" d="M6355.1,4873l182.8,905.4l-182.8-44.6V4873z"/>
		<path id="path192" class="st17" d="M9309.3,4853.2c209.2,137.7,349.1,363.3,424.2,602.2c75.1,238.9,90.8,492.2,94.3,742.6
			c4.1,296.8-8.4,593.9-37.3,889.3c-2.3,23.4-5.8,49.1-23.5,64.6c-14.7,12.9-35.7,15.3-55.2,16.9c-227.1,19.3-456.1,16.7-682.7-7.7
			L9309.3,4853.2"/>
		<path id="path194" class="st14" d="M9818.4,6706.3c-6.3,127.2-15.5,254.3-27.9,381c-2.3,23.4-5.8,49.1-23.5,64.6
			c-14.7,12.9-35.7,15.3-55.2,16.9c-227.1,19.3-456.1,16.7-682.7-7.7l66.9-550.8C9342.2,6600.6,9593.9,6617.4,9818.4,6706.3"/>
		<path id="path196" class="st17" d="M10083,9239.6c-98.4,32.9-209.2-20.2-274.7-100.7c-65.5-80.5-95.7-183.3-124.4-283.1
			c-44.2-153.8-88.4-307.6-132.5-461.4c-10.6-36.8-21.2-74.6-17.9-112.7c4.9-56.6,39.8-105.8,76.6-149
			c59.8-70.3,127.7-133.2,195.4-195.8c95.7-88.5,191.5-177.1,287.2-265.7c-236.1,22.6-472.3,45.1-708.5,67.6
			c-43.2,4.1-88.1,8-128.8-6.9c-41.5-15.3-73.7-48.5-101.5-82.9c-195.7-242.3-232.6-601.7-90.3-878.6
			c514.9-48.6,1037.4-85.6,1554.6-88.7c50.2-0.3,101.5-0.3,149.2,15.5c143.5,47.4,204.8,212.8,246.7,358.2
			c19.8,69.1,39.7,139.8,36.2,211.7c-6,124.3-80.6,234-159.6,330.2c-164,200-358,373.6-560.9,534
			c96.6,166.1,162.7,353.4,213.5,538.7c22.8,83.1,40.4,173.3,9.3,253.6c-22.5,58.2-68.3,104.3-117,143.4
			C10340.3,9143.5,10199,9200.8,10083,9239.6"/>
		<path id="path198" class="st14" d="M7936.2,5976.1c342.8,21.1,683.5,74.7,1016.2,159.9c72.7,342.3-124.2,707-423.6,888
			c-299.3,181.1-678.1,196.9-1015.5,104.5c-94.4-25.9-193.7-65.1-245.4-148.2L7936.2,5976.1"/>
		<path id="path200" class="st12" d="M9329.9,6913.5c-26,227.4-63.6,474.5-231,630.4c-134.7,125.4-326.5,165-509,188.5
			c-373.6,48-753.1,49.9-1127.2,5.8c-121.4,64.3-268.9-21.5-312.5-151.8c-43.6-130.2,8.4-276.9,96.3-382.5
			c76.6-92,180.3-161.2,294.6-196.8c77.9-24.2,159.6-33,239.9-47.5c266.1-48,520.2-161.3,733.7-327.2
			c48.4-37.6,113.7-66.5,122.2-127.1c53.6-386.7,107.4-774,195.5-1154.3c52.8-227.7,118.1-453.9,172.2-681.6
			c149.1,39.5,302.6,64.9,456.1,69.4C9433.9,5468.6,9415,6168.2,9329.9,6913.5"/>
		<path id="path202" class="st12" d="M7963.7,7135.4c-245.5,340.3-648.7,452.4-1063.4,515.8c-414.8,63.4-838,38.1-1255.6,78.3
			c-183.8,17.6-366.4,48-546.1,90.8c-171.2,40.8-216,124.8-372.6,205.2c-16.5-261.8-139.2-556.2-118.6-817.6
			c9-113.8,21.7-228.6,59.7-336.2c37.9-107.7,103.4-208.9,199.2-271c65.4-42.4,141.8-64.8,218.6-77.9
			c430.6-72.9,861.3,136.3,1298,128.1c258.7-4.9,523-81.8,724.3-244.4c50.8-41.1,99-87.9,159.7-111.9c82.5-32.7,179-17.7,256,26.4
			c77,44.1,136.2,114.5,180.7,191.3L7963.7,7135.4"/>
		<path id="path204" class="st13" d="M5045.8,11458.4c-63-159.7-73.5-336.5-53.1-507c20.4-170.4,70.7-335.8,125.9-498.3
			c22.8-66.9,46.5-134,58.2-203.7c3.1-18.6,5.2-38.4-2.1-55.8c-6.5-15.4-19.7-26.9-32.6-37.6c-122-100.2-265.8-173.9-418.4-214.4
			c-40.9-10.8-86.2-18.9-124.1,0c-19.3,9.6-34.8,25.5-49.5,41.3c-52.8,56.9-101.8,118.6-134.2,189.2c-32.4,70.6-47.4,151-30.6,226.8
			c29.9,135.6,150.3,228.6,232.8,340.3c23.6,32,45.1,68.4,45.5,108.2c0.4,41-21.7,78.4-41.1,114.6c-41.1,76.7-73.5,159.6-80.7,246.3
			c-10.6,128.6,35.4,256.8,104.8,365.6s161.4,201,252.6,292.3L5045.8,11458.4"/>
		<path id="path206" class="st13" d="M4889.6,11873.9c35.8-147.9,54-300.9,109.4-442.6c55.4-141.7,157-275.7,301.9-322.1
			c38.1,156,74.4,313.7,79.9,474.2c5.5,160.5-21.5,325.6-102.7,464.1L4889.6,11873.9"/>
		<path id="path208" class="st15" d="M5031.6,8087.3c-107.4,413.6-210.1,830.9-317.5,1244.5c-202.7,22.1-397.3,22.8-601,29.4
			c-18.6,115.4-37.2,231.7-34,348.6c3.2,116.9,29.8,235.7,94.9,332.9c92,137.3,247.9,215.3,396.7,287.2
			c147.8,71.5,290,138.3,437.8,209.7l490.8,38.4l171.9,159.5c203.1-69.5,528.1-104.5,669-239.9c93.4-89.7,175.1-189.1,238.8-301.9
			c-35.5-58.7-62.5-127.1-97.9-185.8c99.5-84.4,186.8-193.4,267.2-296.2c50.4-64.5,98.5-137.5,100.6-219.3c1-39.8-9-79-19-117.5
			c-26.1-101.2-52.3-202.3-78.5-303.5c-122.2-472.5-43.9-965.4-70-1452.8c-0.9-17.5-2.6-36.7-14.9-49.3
			c-10.5-10.7-26.1-14-40.8-16.7c-387.2-71.9-778-127.3-1171.2-148.5c-70.5-3.8-141.5-6.5-211.5,3.3c-23,3.2-47.7,8.9-62.4,26.8
			c-9.7,11.7-13.6,27.1-17.2,41.9C5113,7684.3,5084.9,7881.8,5031.6,8087.3"/>
		<path id="path210" class="st18" d="M5200.1,11403.1c27.7-250.7,29.9-504.2,6.6-755.3c-60.5-41.2-132.1-76.8-198.2-108.2
			c218.7-48.2,402.3-169.9,615.1-239.7c62.8-20.7,142.8-34.1,176.6,41c6.8,15,9.7,31.4,10.6,47.8c1.4,25.4,1,50.9-1.2,76.2
			c-7.5,87.7-45.1,171-108.1,232.4c-12.6,12.2-23.3,25.8-30.3,40.2c-7.2,14.8-10.2,31.3-12.9,47.5c-21.7,129.7-33.4,261-34.8,392.4
			L5200.1,11403.1"/>
		<path id="path212" class="st10" d="M4954.3,9203l10,158.2c-33.8,112-69.8,240.2-103.5,352.2c43-54.5,78.2-104.8,121.2-159.3
			c31.1-39.5,62.6-79.4,84.2-124.8c56-117.7,39.6-255.5,58-384.6c12.7-89.5,42.4-175.7,75.8-259.6c27.1-68.2,57-135.8,99-195.8
			c109.2-156.3,287.9-246.3,459.1-330.2c199-97.5,398.1-194.9,597.1-292.4c-416.5-68.5-855.7,9.4-1223.2,217.1L4954.3,9203"/>
		<path id="path214" class="st10" d="M5643.5,10886c-12.2,96.6-18.9,194-20,291.4l-423.4,225.7c3.6-32.6,6.8-65.3,9.5-98
			C5273.2,11099,5431.8,10916.6,5643.5,10886"/>
		<path id="path216" class="st13" d="M5985.8,11549.5c44.8-80.3,63.1-175.1,51.6-266.3c-10.1-79.8-41.2-165.7-3-236.4
			c12.2-22.6,30.7-41.3,44.6-62.9c42.5-66.6,43-166.5,36-245.1c64.7,61.7,83.5,166.3,44.5,246.7c-15.7,32.4-40.1,62-44.2,97.8
			c-6,51.1,30.4,96.1,60.4,137.9c28.4,39.6,52.7,82.1,72.6,126.6c9,20,17.2,41.1,17,63.1c-0.1,19.6-6.8,38.5-14.9,56.4
			c-35,77.6-97.8,147-100.6,232.1c-3,90.1,63.3,173.4,53.1,262.9c-4.8,42.2-26.3,80.5-48.2,116.9c-63.4,105.6-133.7,206.8-203.9,308
			c-45.3-36.5-82.5-80.8-123.1-122.5L5985.8,11549.5"/>
		<path id="path218" class="st18" d="M5138.1,12128.9c244.4,107,494.9,201.9,747.7,287.3c65-133.7,132-270.2,167.1-414.7
			c56.2-231.6,98.5-477.7,28.3-705.4c-18-58.6-43.9-115.8-84-162.1c-70.8-81.9-182.1-122.8-290.3-120.8
			c-108.2,2-213.1,43.6-302.9,104.2c-89.7,60.5-165.6,139.4-235.5,222c-50.7-33.7-123.4-18.6-178,8.2
			c-54.6,26.9-96.3,75-127.3,127.4c-26,43.9-45.8,93.3-45.4,144.4c0.4,51,24.2,104,68.5,129.4c59.7,34.2,139.2,9.3,187.8-39.5
			c48.6-48.7,73.2-115.7,96-180.6c68.9,123.9,97.3,269.9,79.8,410.6L5138.1,12128.9"/>
		<path id="path220" class="st19" d="M4964.6,11675.1c-14.8,10.6-35.4,20.8-50,9.9c-6.5-4.9-9.8-12.8-12.1-20.5
			c-16.3-52.8-0.6-114.1,39.1-152.5c-17.6,38.7-22.2,83.3-12.9,124.8c29.5-10.9,57.5-26.1,82.9-44.8c-6.6-19.3-11.4-39.3-14.3-59.5
			c-1.1-7.6-1.9-15.6,0.1-23c1.8-6.8,5.8-12.8,10.2-18.2c29.6-36.6,82.4-52.5,127.3-38.4c-18.5,15.4-37,30.8-55.6,46.2
			c-4.5,3.8-9.3,8-10.3,13.7c-0.9,4.9,1.2,9.9,3.2,14.4c18.4,41.3,2.4,52.1-28.6,82.6C5019.1,11633.7,4992.5,11655.4,4964.6,11675.1
			"/>
		<path id="path222" class="st13" d="M5614.8,11945.7c38,27.9,76.8,54.7,116.5,80.1c-6.2,10.7-20.3,18.9-32.3,15.5
			c-11.9-3.4-21.6-11.9-30.4-20.7C5649.1,12001.3,5629.5,11968.7,5614.8,11945.7"/>
		<path id="path224" class="st13" d="M5997.5,12128.7c-33.2-3.6-66.1-10-98.2-19.2c-4.7,4.3-8,15.1-3.8,19.9
			c4.2,4.8,10.6,6.9,16.8,8.3C5941.3,12144.2,5968.3,12134.1,5997.5,12128.7"/>
		<path id="path226" class="st13" d="M5787.1,11749.2c4.1-19.8-2.4-37.9-14.5-40.4c-12.2-2.6-25.4,11.4-29.5,31.3
			c-4.1,19.8,2.4,37.9,14.5,40.4C5769.8,11783.1,5783,11769.1,5787.1,11749.2"/>
		<path id="path228" class="st13" d="M6041.1,11849.9c1.9-19.1-6-35.6-17.8-36.8c-11.7-1.2-22.8,13.4-24.7,32.5s6,35.6,17.8,36.8
			C6028.1,11883.6,6039.2,11869,6041.1,11849.9"/>
		<path id="path230" class="st19" d="M6036,11573c-17.1,52.2-37.1,103.4-60,153.3c16.1-8.8,30.3-16.1,45.6-26.2
			c12-8,24-16.6,32.7-28.2c12.2-16.1,17-37.6,12.9-57.4C6063,11594.7,6053.6,11583,6036,11573"/>
		<path id="path232" class="st20" d="M6035.9,11446.3c-82.6-11.5-165.4-22.2-248.3-32c15.4-34.4,41.6-62.7,76.7-76
			c35.2-13.4,76.5-10.7,108.7,8.8C6005.3,11366.6,6035.9,11408.7,6035.9,11446.3"/>
		<path id="path234" class="st17" d="M5673,12583.5c-126-28.5-251.2-60.9-375.2-97.1c-171-50-341.6-108.2-492.5-202.7
			c-151-94.6-282.2-229-344.6-395.9c-10.1-27.1-18.5-56.1-14-84.7c10.2-65.3,80.7-101.9,144.8-118.6c155-40.2,320.8-24.5,473.2,24.5
			s292.7,129.9,425,220.1c143,97.5,278.2,206.4,403.9,325.5c45.8,43.4,91.6,90.1,113.3,149.3c22.2,60.8,14.3,154.6-47.2,191.6
			C5878.1,12644.5,5757.4,12602.6,5673,12583.5"/>
		<path id="path236" class="st14" d="M5153.6,12569.2c34.6-52.5,56-113.5,61.8-176.1c15.7-0.8,28.1,0.9,39.7,11.5
			c-0.5,59.4-29.6,117.7-65.6,165c-4.1,5.4-8.9,11.1-15.5,12.4C5167.3,12583.4,5149.9,12574.8,5153.6,12569.2"/>
		<path id="path238" class="st18" d="M4113.1,9361.2h851.2c107.9-358.4,215.8-708.4,329.5-1065
			c618.1-163.4,1164.8-279.7,1800.5-348.2c137.7,15.8,232.6,65.2,359.5,79.4c47.5,5.3,78.8-15.4,123.4-32.6
			c83.9-32.4,172.9-48.5,261-66c7.7-1.5,15.9-3.3,21.3-8.9c8.4-8.8,6.4-24-1.4-33.4c-7.8-9.4-19.7-14.2-31.3-18
			c-31.3-10.4-64.2-16-97.1-16.7c29.1-32.1,65-66.1,94.1-98.2c4.7-5.2,9.8-11.3,9.3-18.3c-0.4-6.1-4.7-11-9.3-15
			c-7.9-7-17.1-12.5-27-16.2c-11.9-4.4-24.7-6.3-35.9-12.2c-24.4-12.8-35.5-40.9-48.7-65c-52.6-96.1-160.3-149.6-266.9-175
			c-106.1,2.4-187.7,69.1-289.9,97.4c-131.2,36.3-270.2,22.5-405.9,11.9c-583.8-45.7-1172.7-26.6-1752.3,56.9
			c-82.4,11.9-167.4,26-237.4,71.1c-100.1,64.4-152.8,180.1-198.7,290C4372.7,8429.8,4251.5,8892.9,4113.1,9361.2"/>
		<path id="path240" class="st10" d="M6481,10009.9c13.1,21.6,25,44.6,36.6,67.8l-278.3,165.3L6481,10009.9"/>
		<path id="path242" class="st14" d="M5597.3,7248.5l-644.3-88.2c-51.5-6.9-99.1,28.2-107.9,79.4l-55.8,325.3l1080,114.2
			L5597.3,7248.5"/>
		<path id="path244" class="st17" d="M5463.8,7565l24.9-233.4c5.7-53.6,55.2-91.5,108.5-83.1l411.4,65.1
			c50.4,8,85.4,54.7,78.8,105.3l-27.2,209.6L5463.8,7565"/>
		<path id="path246" class="st14" d="M4426.9,6797.8c186.5-128.9,426-157.9,651.9-139c225.9,18.9,445.6,81.3,669.1,119.4
			c212.1,36.3,427.9,50.7,642.9,43.1c110.4-3.9,221.7-13.8,327.2-46.6c185-57.4,344.1-183.8,461-338.2
			c116.9-154.5,193.9-336.1,246.7-522.5c-913.7-200.3-1856.4-289.2-2789.9-229.4L4426.9,6797.8"/>
		<path id="path248" class="st17" d="M4113.1,7565l265.3-1898.7h444.2l-306.7,1918.8L4113.1,7565"/>
		<path id="path250" class="st7" d="M4515.9,7585.1l306.7-1918.8h113.3l-295.8,1918.8H4515.9"/>
		<path id="path252" class="st12" d="M8023.1,7019.3c-61.3,152.7-180.8,302.6-344.7,317.8c-111.4,10.4-218.6-44.1-310.3-108.2
			c-134-93.6-311.7-240.8-296.5-403.5c60.2-646.9,227.9-1283.7,494.1-1876.3c89.3-198.9,189.6-393,282.4-590.2
			c111.2,90.2,262.4,130.1,412.5,136.7C8150.9,5436.7,8070.3,6901.7,8023.1,7019.3"/>
		<path id="path254" class="st18" d="M8369.3,4033c1,1.4,2.1,2.7,3.2,4.1c-19.6,8-38.2,18.2-53.4,32.9
			c-20.3,120.6-39.8,265.5-58.5,425.6c-150.1-6.6-301.3-46.5-412.5-136.7c64-136.1,124.5-273.5,175.1-415.1
			c23.8-66.5,35-136,44.1-206.1C8192.5,3790,8272.6,3936.3,8369.3,4033"/>
		<path id="path256" class="st17" d="M9149.5,3698.9c-17.7,60.4-51.3,114.7-104.5,148.4c-188.8,119.2-429.5,109.8-641.9,178.7
			c-10.2,3.3-20.5,6.9-30.5,11.1c-1.1-1.4-2.3-2.7-3.2-4.1c-96.7-96.7-176.8-243-301.9-295.3c10.9-83.8,18.7-168.3,41.2-249.6
			C8460.5,3529.8,8809,3600.4,9149.5,3698.9"/>
		<path id="path258" class="st18" d="M9516.2,4172.3c-11.5,6.4-22.8,13.2-33.6,20.7c-8.6,184.5-15.6,366-22.1,545.8
			c-153.5-4.5-306.9-29.9-456.1-69.4c52.4-220.7,94.3-442.9,104.1-669.4c1.3-29.5,2-59,2.8-88.4c57,9.9,111.3,30.3,157.9,61.4
			C9361.9,4028.5,9431.7,4114.6,9516.2,4172.3"/>
		<path id="path260" class="st17" d="M10141.5,4004.4c-97.6,58.8-214.8,72.3-327.8,86.3c-100,12.3-208.8,32.4-297.5,81.6
			c-84.5-57.7-154.3-143.8-246.9-199.3c-46.6-31.1-100.9-51.5-157.9-61.4c1.4-48.9,3.2-97.7,8.6-146.3c1.6-14.2,3.7-29.2,12.3-40.6
			c15.8-21.2,46.3-22.7,72.7-22.3c357.8,5.2,715.6,10.5,1073.4,15.8C10311.1,3827.3,10239.1,3945.6,10141.5,4004.4"/>
		<path id="path262" class="st16" d="M6355.1,4873h-747.2v975.6h747.2V4873"/>
		<path id="path264" class="st17" d="M5737.1,5038.6h488.8V5683h-488.8V5038.6z M6245.9,5018.6h-528.8V5703h528.8V5018.6"/>
		<path id="path266" class="st17" d="M4789.3,4873h818.6v975.6h-818.6V4873"/>
		<path id="path268" class="st16" d="M4682.6,4213h-273.1v1147.8h273.1V4213"/>
		<path id="path270" class="st17" d="M3379.7,4213h1029.9v1147.8H3379.7V4213"/>
		<path id="path272" class="st17" d="M4789.3,5360.8h-1000V5693h1000V5360.8"/>
		<path id="path274" class="st16" d="M10915.9,3573H8509.3v226.6h2406.6V3573"/>
		<path id="path276" class="st14" d="M6975.9,2813l1533.3,760v226.6l-1533.3-760L6975.9,2813"/>
		<path id="path278" class="st17" d="M10915.9,3573H8509.3l-1533.3-760h1863.6c570.4,0,1129.1,161.6,1611.3,466.2L10915.9,3573"/>
		<path id="path280" class="st17" d="M7007.5,3283c0,734.5-389.5,1330-870,1330h-504.9l-4.9-252.2
			c-218.2-241.7-360.2-634.4-360.2-1077.8c0-443.7,142.1-836.6,360.6-1078.2l4.5-251.8h550.8c0,0,0.6,0.7,1.7,2
			C6643.5,1992.8,7007.5,2572.9,7007.5,3283"/>
		<path id="path282" class="st16" d="M6502.6,3283c0-734.6-389.5-1330-870-1330c-480.5,0-870,595.4-870,1330
			c0,734.5,389.5,1330,870,1330C6113.1,4613,6502.6,4017.5,6502.6,3283"/>
		<path id="path284" class="st17" d="M6153.7,3283c0-440-233.3-796.7-521.1-796.7S5111.5,2843,5111.5,3283s233.3,796.6,521.1,796.6
			S6153.7,3723,6153.7,3283"/>
		<path id="path286" class="st14" d="M6079.3,3283c0-377.1-200-682.9-446.7-682.9c-246.7,0-446.7,305.8-446.7,682.9
			s200,682.8,446.7,682.8C5879.3,3965.8,6079.3,3660.1,6079.3,3283"/>
		<path id="path288" class="st17" d="M5959.3,3283c0-137.9-73.1-249.7-163.3-249.7s-163.3,111.8-163.3,249.7s73.1,249.7,163.3,249.7
			S5959.3,3420.9,5959.3,3283"/>
		<path id="path290" class="st17" d="M3944.8,2671.3c0,396.7-210.4,718.3-469.9,718.3h-272.7l-2.6-136.2
			c-117.9-130.5-194.6-342.6-194.6-582.1c0-239.6,76.8-451.8,194.8-582.3l2.4-136h297.5c0,0,0.3,0.4,0.9,1.1
			C3748.2,1974.5,3944.8,2287.8,3944.8,2671.3"/>
		<path id="path292" class="st16" d="M3672.1,2671.3c0-396.7-210.4-718.3-469.9-718.3s-469.9,321.6-469.9,718.3
			s210.4,718.3,469.9,718.3S3672.1,3068,3672.1,2671.3"/>
		<path id="path294" class="st17" d="M3483.7,2671.3c0-237.6-126-430.3-281.4-430.3s-281.5,192.7-281.5,430.3s126,430.3,281.5,430.3
			S3483.7,2908.9,3483.7,2671.3"/>
		<path id="path296" class="st14" d="M3443.4,2671.3c0-203.7-108-368.8-241.2-368.8c-133.2,0-241.2,165.1-241.2,368.8
			s108,368.8,241.2,368.8C3335.4,3040.1,3443.4,2875,3443.4,2671.3"/>
		<path id="path298" class="st17" d="M3378.6,2671.3c0-74.5-39.5-134.9-88.2-134.9s-88.2,60.4-88.2,134.9s39.5,134.8,88.2,134.8
			S3378.6,2745.8,3378.6,2671.3"/>
		<path id="path300" class="st14" d="M10014.8,7965.6c-72.9,65.3-147.8,131.8-238.5,168.8c-55.2,22.6-114.4,33.4-171.6,50.7
			c-14.7,4.4-29.2,9.3-43.6,14.6c13.7-23.8,31-46.1,48.8-67c59.8-70.3,127.7-133.2,195.4-195.8c95.8-88.5,191.5-177.1,287.2-265.7
			l258.3-20.1C10228,7761.1,10137.8,7855.6,10014.8,7965.6"/>
		<path id="path302" class="st16" d="M10754.3,9253.8c0-235.2-190.6-425.9-425.8-425.9s-425.9,190.7-425.9,425.9
			s190.7,425.8,425.9,425.8S10754.3,9489,10754.3,9253.8"/>
		<path id="path304" class="st17" d="M10555.1,9253.8c0-125.2-101.5-226.7-226.6-226.7c-125.2,0-226.7,101.5-226.7,226.7
			s101.5,226.7,226.7,226.7C10453.6,9480.5,10555.1,9379,10555.1,9253.8"/>
		<path id="path306" class="st14" d="M10515.1,9253.8c0-103.1-83.5-186.7-186.6-186.7s-186.7,83.6-186.7,186.7
			c0,103.1,83.6,186.7,186.7,186.7C10431.6,9440.5,10515.1,9356.9,10515.1,9253.8"/>
		<path id="path308" class="st16" d="M11482.6,11193.7c0-199.5-161.7-361.2-361.2-361.2s-361.3,161.7-361.3,361.2
			s161.8,361.2,361.3,361.2S11482.6,11393.2,11482.6,11193.7"/>
		<path id="path310" class="st17" d="M11313.6,11193.7c0-106.2-86-192.3-192.2-192.3s-192.3,86.1-192.3,192.3
			s86.1,192.3,192.3,192.3S11313.6,11299.9,11313.6,11193.7"/>
		<path id="path312" class="st14" d="M11279.7,11193.7c0-87.4-70.9-158.3-158.3-158.3c-87.5,0-158.4,70.9-158.4,158.3
			c0,87.4,70.9,158.3,158.4,158.3C11208.8,11352,11279.7,11281.1,11279.7,11193.7"/>
		<path id="path314" class="st17" d="M12138.2,11383.1c-14.2-55.6,5.9-117.3,46.6-157.8c21.9-21.8,50.1-38.3,80.8-42
			c34.2-4.1,69.1,8.1,96.7,28.7c57,42.5,82.4,124.6,54.7,190C12363.9,11527.4,12172.2,11516.7,12138.2,11383.1"/>
		<path id="path316" class="st17" d="M12652.3,11933.4c-14.1-55.7,6-117.3,46.6-157.8c22-21.9,50.2-38.3,80.9-42
			c34.2-4.1,69.1,8,96.7,28.6c56.9,42.5,82.3,124.7,54.7,190.1C12878.1,12077.7,12686.4,12066.9,12652.3,11933.4"/>
		<path id="path318" class="st17" d="M12996.6,11132.6c0-72.4-58.7-131.2-131.2-131.2c-72.4,0-131.1,58.8-131.1,131.2
			s58.7,131.1,131.1,131.1C12937.9,11263.7,12996.6,11205,12996.6,11132.6"/>
		<path id="path320" class="st17" d="M13439.3,11686.1c0-72.5-58.8-131.2-131.2-131.2s-131.1,58.7-131.1,131.2
			c0,72.4,58.7,131.1,131.1,131.1C13380.5,11817.2,13439.3,11758.5,13439.3,11686.1"/>
		<path id="path322" class="st16" d="M5769.3,7942.4l-2151.9-282.6c-69.6-9.1-117.3-74.8-104.4-143.9l0,0
			c11.9-63.6,71.4-107,135.6-98.9l2025.6,255.5L5769.3,7942.4"/>
		<path id="path324" class="st14" d="M6172.2,8433.6c3.5,26.4-4.9,56.1-27.2,70.7c-13.9,9.1-31,11.3-47.4,13.2
			c-25.3,3-50.7,6-76,8.9c-14.8-12.5-27.4-27.8-37-45.3c-127.9-231.5-520.8-916.1-520.8-916.1l189.5,20.1
			c176.7,249.4,340.2,508.1,489.3,774.9C6155.6,8383.2,6168.8,8407.2,6172.2,8433.6"/>
		<path id="path326" class="st16" d="M6165.4,8480c6.6-14.1,8.9-30.8,6.8-46.4c-3.5-26.4-16.6-50.4-29.6-73.6
			c-149.1-266.8-312.6-525.5-489.3-774.9l965.9,102.9l431.3,837.3c7.1,13.7,7.9,29,3.6,42.7c-126.9-0.8-254.5-15.2-380.8-29.6
			C6504.1,8518.9,6334.7,8499.5,6165.4,8480"/>
		<path id="path328" class="st17" d="M7030.7,8599.1l-59.8,38.3c-10.7,6.8-23.5,9.9-36.2,8.6l-823-81.2c-33.7-3.3-65.1-17-90.1-38.4
			c25.3-2.9,50.7-5.9,76-8.9c16.5-1.9,33.6-4.1,47.4-13.2c9.1-5.9,15.8-14.5,20.4-24.3c169.3,19.5,338.7,38.9,508,58.4
			c126.3,14.4,253.9,28.8,380.8,29.6C7050.3,8580.4,7042.4,8591.6,7030.7,8599.1"/>
		<path id="path330" class="st16" d="M5384.3,4873h-10v715H3949.8v-227.2h-10V5598h1444.5V4873"/>
		<path id="path332" class="st16" d="M4879.3,5138h227.2v330h-227.2V5138z M5116.5,5128h-247.2v350h247.2V5128"/>
		<path id="path334" class="st16" d="M4314.3,4401.2h-364.5v816.9h364.5V4401.2z M3939.8,5228.1V5063h-560.1v-10h560.1v-661.8h384.5
			v836.9H3939.8"/>
		<path id="path336" class="st16" d="M4289.3,5133h-300v-45h300V5133"/>
		<path id="path338" class="st16" d="M4289.3,4931.4h-300v-45h300V4931.4"/>
		<path id="path340" class="st16" d="M4289.3,4729.8h-300v-45h300V4729.8"/>
		<path id="path342" class="st16" d="M4289.3,4528.2h-300v-45h300V4528.2"/>
	</g>
</g>
</svg>
