<svg width="306" height="178" viewBox="0 0 306 178" fill="none" xmlns="http://www.w3.org/2000/svg">
<path d="M19.584 138.872V142.94H12.888V164H7.848V142.94H1.152V138.872H19.584ZM44.1053 138.872V164H39.0653V153.308H28.3013V164H23.2613V138.872H28.3013V149.204H39.0653V138.872H44.1053ZM54.106 142.94V149.24H62.566V153.236H54.106V159.896H63.646V164H49.066V138.836H63.646V142.94H54.106ZM76.9022 164.252C75.1502 164.252 73.5662 163.952 72.1502 163.352C70.7582 162.752 69.6542 161.888 68.8382 160.76C68.0222 159.632 67.6022 158.3 67.5782 156.764H72.9782C73.0502 157.796 73.4102 158.612 74.0582 159.212C74.7302 159.812 75.6422 160.112 76.7942 160.112C77.9702 160.112 78.8942 159.836 79.5662 159.284C80.2382 158.708 80.5742 157.964 80.5742 157.052C80.5742 156.308 80.3462 155.696 79.8902 155.216C79.4342 154.736 78.8582 154.364 78.1622 154.1C77.4902 153.812 76.5542 153.5 75.3542 153.164C73.7222 152.684 72.3902 152.216 71.3582 151.76C70.3502 151.28 69.4742 150.572 68.7302 149.636C68.0102 148.676 67.6502 147.404 67.6502 145.82C67.6502 144.332 68.0222 143.036 68.7662 141.932C69.5102 140.828 70.5542 139.988 71.8982 139.412C73.2422 138.812 74.7782 138.512 76.5062 138.512C79.0982 138.512 81.1982 139.148 82.8062 140.42C84.4382 141.668 85.3382 143.42 85.5062 145.676H79.9622C79.9142 144.812 79.5422 144.104 78.8462 143.552C78.1742 142.976 77.2742 142.688 76.1462 142.688C75.1622 142.688 74.3702 142.94 73.7702 143.444C73.1942 143.948 72.9062 144.68 72.9062 145.64C72.9062 146.312 73.1222 146.876 73.5542 147.332C74.0102 147.764 74.5622 148.124 75.2102 148.412C75.8822 148.676 76.8182 148.988 78.0182 149.348C79.6502 149.828 80.9822 150.308 82.0142 150.788C83.0462 151.268 83.9342 151.988 84.6782 152.948C85.4222 153.908 85.7942 155.168 85.7942 156.728C85.7942 158.072 85.4462 159.32 84.7502 160.472C84.0542 161.624 83.0342 162.548 81.6902 163.244C80.3462 163.916 78.7502 164.252 76.9022 164.252ZM95.2037 142.94V149.24H103.664V153.236H95.2037V159.896H104.744V164H90.1637V138.836H104.744V142.94H95.2037Z" fill="#2B2D42"/>
<path d="M147.892 159.212H137.884L136.228 164H130.936L139.972 138.836H145.84L154.876 164H149.548L147.892 159.212ZM146.524 155.18L142.888 144.668L139.252 155.18H146.524ZM171.214 164L165.67 154.208H163.294V164H158.254V138.872H167.686C169.63 138.872 171.286 139.22 172.654 139.916C174.022 140.588 175.042 141.512 175.714 142.688C176.41 143.84 176.758 145.136 176.758 146.576C176.758 148.232 176.278 149.732 175.318 151.076C174.358 152.396 172.93 153.308 171.034 153.812L177.046 164H171.214ZM163.294 150.428H167.506C168.874 150.428 169.894 150.104 170.566 149.456C171.238 148.784 171.574 147.86 171.574 146.684C171.574 145.532 171.238 144.644 170.566 144.02C169.894 143.372 168.874 143.048 167.506 143.048H163.294V150.428ZM186.356 142.94V149.24H194.816V153.236H186.356V159.896H195.896V164H181.316V138.836H195.896V142.94H186.356Z" fill="#2B2D42"/>
<path d="M238.892 159.212H228.884L227.228 164H221.936L230.972 138.836H236.84L245.876 164H240.548L238.892 159.212ZM237.524 155.18L233.888 144.668L230.252 155.18H237.524ZM263.51 151.112C264.926 151.376 266.09 152.084 267.002 153.236C267.914 154.388 268.37 155.708 268.37 157.196C268.37 158.54 268.034 159.728 267.362 160.76C266.714 161.768 265.766 162.56 264.518 163.136C263.27 163.712 261.794 164 260.09 164H249.254V138.872H259.622C261.326 138.872 262.79 139.148 264.014 139.7C265.262 140.252 266.198 141.02 266.822 142.004C267.47 142.988 267.794 144.104 267.794 145.352C267.794 146.816 267.398 148.04 266.606 149.024C265.838 150.008 264.806 150.704 263.51 151.112ZM254.294 149.24H258.902C260.102 149.24 261.026 148.976 261.674 148.448C262.322 147.896 262.646 147.116 262.646 146.108C262.646 145.1 262.322 144.32 261.674 143.768C261.026 143.216 260.102 142.94 258.902 142.94H254.294V149.24ZM259.37 159.896C260.594 159.896 261.542 159.608 262.214 159.032C262.91 158.456 263.258 157.64 263.258 156.584C263.258 155.504 262.898 154.664 262.178 154.064C261.458 153.44 260.486 153.128 259.262 153.128H254.294V159.896H259.37ZM277.426 160.004H285.706V164H272.386V138.872H277.426V160.004ZM293.95 142.94V149.24H302.41V153.236H293.95V159.896H303.49V164H288.91V138.836H303.49V142.94H293.95Z" fill="#D90429"/>
<path d="M95.268 17.872C97.908 17.872 100.224 18.388 102.216 19.42C104.232 20.452 105.78 21.928 106.86 23.848C107.964 25.744 108.516 27.952 108.516 30.472C108.516 32.992 107.964 35.2 106.86 37.096C105.78 38.968 104.232 40.42 102.216 41.452C100.224 42.484 97.908 43 95.268 43H86.484V17.872H95.268ZM95.088 38.716C97.728 38.716 99.768 37.996 101.208 36.556C102.648 35.116 103.368 33.088 103.368 30.472C103.368 27.856 102.648 25.816 101.208 24.352C99.768 22.864 97.728 22.12 95.088 22.12H91.524V38.716H95.088ZM125.907 17.872V43H120.867V17.872H125.907ZM139.562 43.252C137.81 43.252 136.226 42.952 134.81 42.352C133.418 41.752 132.314 40.888 131.498 39.76C130.682 38.632 130.262 37.3 130.238 35.764H135.638C135.71 36.796 136.07 37.612 136.718 38.212C137.39 38.812 138.302 39.112 139.454 39.112C140.63 39.112 141.554 38.836 142.226 38.284C142.898 37.708 143.234 36.964 143.234 36.052C143.234 35.308 143.006 34.696 142.55 34.216C142.094 33.736 141.518 33.364 140.822 33.1C140.15 32.812 139.214 32.5 138.014 32.164C136.382 31.684 135.05 31.216 134.018 30.76C133.01 30.28 132.134 29.572 131.39 28.636C130.67 27.676 130.31 26.404 130.31 24.82C130.31 23.332 130.682 22.036 131.426 20.932C132.17 19.828 133.214 18.988 134.558 18.412C135.902 17.812 137.438 17.512 139.166 17.512C141.758 17.512 143.858 18.148 145.466 19.42C147.098 20.668 147.998 22.42 148.166 24.676H142.622C142.574 23.812 142.202 23.104 141.506 22.552C140.834 21.976 139.934 21.688 138.806 21.688C137.822 21.688 137.03 21.94 136.43 22.444C135.854 22.948 135.566 23.68 135.566 24.64C135.566 25.312 135.782 25.876 136.214 26.332C136.67 26.764 137.222 27.124 137.87 27.412C138.542 27.676 139.478 27.988 140.678 28.348C142.31 28.828 143.642 29.308 144.674 29.788C145.706 30.268 146.594 30.988 147.338 31.948C148.082 32.908 148.454 34.168 148.454 35.728C148.454 37.072 148.106 38.32 147.41 39.472C146.714 40.624 145.694 41.548 144.35 42.244C143.006 42.916 141.41 43.252 139.562 43.252ZM176.81 38.212H166.802L165.146 43H159.854L168.89 17.836H174.758L183.794 43H178.466L176.81 38.212ZM175.442 34.18L171.806 23.668L168.17 34.18H175.442ZM201.428 30.112C202.844 30.376 204.008 31.084 204.92 32.236C205.832 33.388 206.288 34.708 206.288 36.196C206.288 37.54 205.952 38.728 205.28 39.76C204.632 40.768 203.684 41.56 202.436 42.136C201.188 42.712 199.712 43 198.008 43H187.172V17.872H197.54C199.244 17.872 200.708 18.148 201.932 18.7C203.18 19.252 204.116 20.02 204.74 21.004C205.388 21.988 205.712 23.104 205.712 24.352C205.712 25.816 205.316 27.04 204.523 28.024C203.756 29.008 202.724 29.704 201.428 30.112ZM192.212 28.24H196.82C198.02 28.24 198.944 27.976 199.592 27.448C200.24 26.896 200.564 26.116 200.564 25.108C200.564 24.1 200.24 23.32 199.592 22.768C198.944 22.216 198.02 21.94 196.82 21.94H192.212V28.24ZM197.288 38.896C198.512 38.896 199.46 38.608 200.132 38.032C200.828 37.456 201.176 36.64 201.176 35.584C201.176 34.504 200.816 33.664 200.096 33.064C199.376 32.44 198.404 32.128 197.18 32.128H192.212V38.896H197.288ZM215.344 39.004H223.624V43H210.304V17.872H215.344V39.004ZM231.868 21.94V28.24H240.328V32.236H231.868V38.896H241.408V43H226.828V17.836H241.408V21.94H231.868Z" fill="#2B2D42"/>
<path d="M162.939 111.061C163.525 111.646 164.475 111.646 165.061 111.061L174.607 101.515C175.192 100.929 175.192 99.9792 174.607 99.3934C174.021 98.8076 173.071 98.8076 172.485 99.3934L164 107.879L155.515 99.3934C154.929 98.8076 153.979 98.8076 153.393 99.3934C152.808 99.9792 152.808 100.929 153.393 101.515L162.939 111.061ZM162.5 58L162.5 110L165.5 110L165.5 58L162.5 58Z" fill="#2B2D42"/>
<path d="M65 53.5C76.4179 49.1716 87.8517 44.8901 99.2778 40.5833C112.081 35.7577 125.306 31.4346 136.389 23.25C148.142 14.571 161.455 6.82138 175 1.5" stroke="black" stroke-width="3" stroke-linecap="round"/>
<path d="M70 9C84.406 13.0772 99.1696 17.1779 112.667 23.7778C125.557 30.0811 138.378 36.4139 151.556 42.1111C153.093 42.776 157.984 43.9687 159 46" stroke="black" stroke-width="3" stroke-linecap="round"/>
</svg>
