<svg width="212" height="98" viewBox="0 0 212 98" fill="none" xmlns="http://www.w3.org/2000/svg">
<path d="M18.864 31.98V35.328H12.204V57H8.1V35.328H1.404V31.98H18.864ZM43.0003 31.98V57H38.8963V46.056H27.1243V57H23.0203V31.98H27.1243V42.708H38.8963V31.98H43.0003ZM52.5071 35.292V42.636H61.1471V45.984H52.5071V53.652H62.2271V57H48.4031V31.944H62.2271V35.292H52.5071ZM75.526 57.252C73.846 57.252 72.334 56.964 70.99 56.388C69.646 55.788 68.59 54.948 67.822 53.868C67.054 52.788 66.67 51.528 66.67 50.088H71.062C71.158 51.168 71.578 52.056 72.322 52.752C73.09 53.448 74.158 53.796 75.526 53.796C76.942 53.796 78.046 53.46 78.838 52.788C79.63 52.092 80.026 51.204 80.026 50.124C80.026 49.284 79.774 48.6 79.27 48.072C78.79 47.544 78.178 47.136 77.434 46.848C76.714 46.56 75.706 46.248 74.41 45.912C72.778 45.48 71.446 45.048 70.414 44.616C69.406 44.16 68.542 43.464 67.822 42.528C67.102 41.592 66.742 40.344 66.742 38.784C66.742 37.344 67.102 36.084 67.822 35.004C68.542 33.924 69.55 33.096 70.846 32.52C72.142 31.944 73.642 31.656 75.346 31.656C77.77 31.656 79.75 32.268 81.286 33.492C82.846 34.692 83.71 36.348 83.878 38.46H79.342C79.27 37.548 78.838 36.768 78.046 36.12C77.254 35.472 76.21 35.148 74.914 35.148C73.738 35.148 72.778 35.448 72.034 36.048C71.29 36.648 70.918 37.512 70.918 38.64C70.918 39.408 71.146 40.044 71.602 40.548C72.082 41.028 72.682 41.412 73.402 41.7C74.122 41.988 75.106 42.3 76.354 42.636C78.01 43.092 79.354 43.548 80.386 44.004C81.442 44.46 82.33 45.168 83.05 46.128C83.794 47.064 84.166 48.324 84.166 49.908C84.166 51.18 83.818 52.38 83.122 53.508C82.45 54.636 81.454 55.548 80.134 56.244C78.838 56.916 77.302 57.252 75.526 57.252ZM93.1126 35.292V42.636H101.753V45.984H93.1126V53.652H102.833V57H89.0086V31.944H102.833V35.292H93.1126Z" fill="#2B2D42"/>
<path d="M140.544 73.208H118.428L114.628 84H105.584L124.508 31.104H134.54L153.464 84H144.344L140.544 73.208ZM138.112 66.14L129.524 41.592L120.86 66.14H138.112Z" fill="#D90429"/>
<path d="M169.696 56L163.936 45.992H160.804V56H156.7V30.98H165.34C167.26 30.98 168.88 31.316 170.2 31.988C171.544 32.66 172.54 33.56 173.188 34.688C173.86 35.816 174.196 37.076 174.196 38.468C174.196 40.1 173.716 41.588 172.756 42.932C171.82 44.252 170.368 45.152 168.4 45.632L174.592 56H169.696ZM160.804 42.716H165.34C166.876 42.716 168.028 42.332 168.796 41.564C169.588 40.796 169.984 39.764 169.984 38.468C169.984 37.172 169.6 36.164 168.832 35.444C168.064 34.7 166.9 34.328 165.34 34.328H160.804V42.716ZM183.55 34.292V41.636H192.19V44.984H183.55V52.652H193.27V56H179.446V30.944H193.27V34.292H183.55Z" fill="#2B2D42"/>
<path d="M170.092 71.148C171.436 71.388 172.576 72.096 173.512 73.272C174.448 74.448 174.916 75.78 174.916 77.268C174.916 78.54 174.58 79.692 173.908 80.724C173.26 81.732 172.312 82.536 171.064 83.136C169.816 83.712 168.364 84 166.708 84H156.7V58.98H166.24C167.944 58.98 169.408 59.268 170.632 59.844C171.856 60.42 172.78 61.2 173.404 62.184C174.028 63.144 174.34 64.224 174.34 65.424C174.34 66.864 173.956 68.064 173.188 69.024C172.42 69.984 171.388 70.692 170.092 71.148ZM160.804 69.492H165.88C167.224 69.492 168.268 69.192 169.012 68.592C169.78 67.968 170.164 67.08 170.164 65.928C170.164 64.8 169.78 63.924 169.012 63.3C168.268 62.652 167.224 62.328 165.88 62.328H160.804V69.492ZM166.348 80.652C167.74 80.652 168.832 80.316 169.624 79.644C170.416 78.972 170.812 78.036 170.812 76.836C170.812 75.612 170.392 74.64 169.552 73.92C168.712 73.2 167.596 72.84 166.204 72.84H160.804V80.652H166.348ZM183.48 80.688H191.94V84H179.376V58.98H183.48V80.688ZM199.476 62.292V69.636H208.116V72.984H199.476V80.652H209.196V84H195.372V58.944H209.196V62.292H199.476Z" fill="#D90429"/>
</svg>
